<svg width="454" height="428" viewBox="0 0 454 428" fill="none" xmlns="http://www.w3.org/2000/svg">
<path fill-rule="evenodd" clip-rule="evenodd" d="M215.601 48.8622C266.774 45.4422 326.07 -9.51227 363.822 25.2036C403.299 61.5061 344.663 130.891 360.518 182.125C375.953 232.003 454.729 253.515 450.581 305.562C446.614 355.348 387.47 381.941 342.813 404.304C303.519 423.982 259.547 423.47 215.601 423.235C171.916 423.003 125.361 427.714 89.3703 402.954C52.9916 377.926 38.8134 333.066 24.0476 291.451C8.86458 248.661 -6.9664 204.454 3.23959 160.211C13.9776 113.663 38.8 66.2817 81.108 44.098C121.834 22.744 169.719 51.9286 215.601 48.8622Z" fill="#B8F9B2"/>
<path fill-rule="evenodd" clip-rule="evenodd" d="M215.65 0.868348C264.441 9.35761 267.504 83.921 307.753 112.775C348.478 141.971 419.987 121.542 444.747 165.106C468.82 207.463 436.649 260.387 416.979 304.96C399.092 345.491 375.565 384.521 337.738 407.584C301.639 429.594 257.924 428.414 215.65 427.708C174.111 427.015 131.178 426.417 96.4892 403.555C60.8859 380.091 38.9444 341.769 24.4231 301.678C9.48422 260.434 -0.15115 215.55 13.2651 173.785C26.7047 131.948 63.4825 104.631 96.8914 76.0868C133.411 44.8846 168.327 -7.36557 215.65 0.868348Z" fill="#D3F2E1"/>
<path fill-rule="evenodd" clip-rule="evenodd" d="M113.327 327.24C115.374 329.612 118.396 331.373 120.715 333.542C123.15 335.82 125.793 337.811 128.218 340.062C138.917 326.955 153.574 318.918 166.271 308.042C172.291 302.885 176.726 295.891 179.971 288.713C181.635 285.033 182.864 281.246 183.826 277.326C184.259 275.56 184.683 273.8 184.966 272.011C185.309 269.843 185.398 269.658 186.857 267.967C187.485 267.239 188.702 265.112 189.932 265.346C190.967 265.543 192.861 268.702 193.515 269.482C196.661 273.235 199.711 277.101 203.024 280.708C208.092 286.228 212.706 291.659 217.411 297.509C227.037 309.478 237.42 320.745 247.897 332.007C248.674 332.842 250.486 335.291 251.603 335.62C252.96 336.02 255.166 334.351 256.533 333.418C259.833 331.167 262.434 328.38 265.255 325.589C270.76 320.143 274.487 312.499 276.995 305.225C278.496 300.872 279.472 296.359 281.021 292.02C281.667 290.211 283.13 287.989 282.387 286.414C282.166 285.944 280.758 284.697 280.261 284.602C279.674 284.488 278.695 285.295 278.491 285.24C276.543 284.705 277.624 282.661 276.465 281.561C275.808 280.937 272.466 281.028 271.468 280.686C267.82 279.431 264.548 277.039 261.099 275.611C246.662 269.632 232.049 263.817 219.586 254.055C216.354 251.523 214.206 249.621 210.349 247.985C206.452 246.331 202.534 244.856 198.557 243.414C195.048 242.141 191.52 240.947 187.896 240.035C183.976 239.048 178.416 237.797 174.5 239.068C166.81 241.563 164.326 247.914 161.264 254.614C157.12 263.679 152.11 272.256 146.679 280.6C136.231 296.652 123.523 311.057 113.327 327.24Z" fill="#FF5678"/>
<path fill-rule="evenodd" clip-rule="evenodd" d="M344.933 185.326C345.356 185.111 348.66 186.458 349.215 186.665C351.43 187.488 353.516 188.857 355.603 189.971C354.004 191.922 352.404 193.873 350.805 195.825C349.237 191.97 347.222 188.79 344.933 185.326ZM343.842 209.306C344.386 209.368 339.792 220.434 339.255 221.676C337.303 226.195 335.253 230.67 333.275 235.178C331.358 239.546 328.927 243.565 326.478 247.646C324.383 251.136 322.228 256.552 319.067 259.136C321.063 250.264 320.8 240.062 326.523 232.612C332.456 224.888 338.322 217.346 343.842 209.306ZM113.327 327.635C122.193 313.564 133.291 301.116 142.536 287.295C147.713 279.557 152.751 271.72 157.109 263.483C160.278 257.491 162.248 248.942 167.143 244.361C169.301 242.343 171.605 240.367 174.5 239.463C178.462 238.226 183.916 239.452 187.896 240.43C195.311 242.253 202.556 245.083 209.58 248.055C216.705 251.07 222.784 256.485 229.222 260.835C236.127 265.503 243.603 268.903 251.34 271.879C258.076 274.471 264.069 278.192 270.77 280.8C272.106 281.32 274.83 281.244 275.951 281.922C277.158 282.652 276.682 284.807 278.148 285.602C278.809 285.961 279.029 284.661 279.536 284.682C280.157 284.708 280.723 285.438 281.321 285.9C283.757 287.784 282.264 289.039 281.3 291.631C278.157 300.074 276.468 308.664 272.055 316.635C268.426 323.187 263.233 329.058 257.119 333.395C256.189 334.056 253.157 336.613 252.066 336.443C251.083 336.29 249.084 333.672 248.405 332.961C245.326 329.734 242.512 326.262 239.435 323.03C234.68 318.035 230.103 312.906 225.489 307.843C220.132 301.965 215.391 295.305 210.567 289.025C208.348 286.136 205.491 283.783 203.024 281.104C199.707 277.502 196.661 273.629 193.514 269.878C192.563 268.742 190.968 265.838 189.489 265.872C188.452 265.896 186.624 268.343 186.082 269.109C184.066 271.959 184.076 277.105 183.073 280.662C180.627 289.336 176.217 297.808 170.169 304.502C164.155 311.158 156.45 315.891 149.337 321.241C141.63 327.038 134.33 332.97 128.218 340.457C125.793 338.206 123.15 336.215 120.715 333.937C118.395 331.768 115.373 330.008 113.327 327.635ZM227.448 367.444C225.725 367.462 222.806 368.525 221.264 367.885C225.838 362.813 230.038 358.461 235.824 354.744C241.829 350.886 247.814 347.063 253.646 342.949C265.4 334.657 274.045 324.824 278.955 311.016C280.219 307.46 281.066 303.73 281.993 300.075C282.491 298.107 283.483 288.897 285.168 288.102C286.167 287.63 293.679 292.922 294.869 293.582C297.652 295.124 300.445 296.32 303.323 297.527C309.507 300.123 315.882 302.102 322.441 303.755C330.303 305.736 335.659 302.458 340.53 296.264C346.056 289.237 350.648 281.308 355.7 273.928C357.998 270.572 359.901 267.221 361.598 263.519C362.709 261.097 367.113 254.561 365.591 251.98C361.249 255.294 359.687 261.882 356.729 266.318C353.043 271.847 348.888 277.06 345.183 282.584C342.067 287.229 338.888 292.858 334.285 296.197C330.235 299.134 326.388 298.231 322.031 296.911C316.749 295.312 311.274 294.523 306.098 292.539C300.496 290.393 295.196 287.347 289.731 284.864C287.183 283.706 284.133 283.048 281.732 281.604C279.662 280.361 279.971 279.704 279.819 277.056C279.641 273.967 279.437 270.875 279.301 267.783C279.209 265.705 280.33 262.888 279.569 261.337C285.774 262.415 291.838 263.859 298 265.137C301.373 265.836 304.626 266.701 308.033 267.25C309.332 267.46 311.108 267.454 312.271 268.021C313.199 267.754 313.672 267.924 313.69 268.53C313.735 268.859 313.805 269.184 313.902 269.503C315.804 270.371 316.911 268.51 318.561 266.725C320.597 264.523 322.122 262.042 323.615 259.454C326.956 253.668 330.806 248.225 333.897 242.276C337.047 236.211 339.606 229.717 342.277 223.425C344.727 217.652 346.296 211.409 349.004 205.772C350.212 203.256 351.744 201.176 353.532 199.051C355.008 197.297 357.278 193.513 359.482 192.708C360.065 192.495 361.591 192.853 362.253 192.805C363.572 192.711 364.748 192.226 366.098 192.332C369.022 192.561 372.209 194.414 374.545 196.043C373.035 197.392 369.259 199.031 371.971 201.461C374.604 203.82 376.058 199.588 377.062 197.735C381.793 201.628 381.109 206.996 381.655 212.497C381.941 215.369 382.692 218.197 383.176 221.026C383.525 223.062 383.28 225.168 383.38 227.246C383.634 232.528 384.164 237.584 384.138 242.792C384.111 248.359 383.732 253.735 383.288 259.261C382.54 268.566 380.826 277.873 379.356 287.103C378.529 292.292 377.397 297.333 376.298 302.437C375.052 308.23 372.745 313.718 371.451 319.496C370.133 317.817 369.142 317.809 367.01 318.031C365.37 318.202 364.269 317.811 364.365 320.092C364.427 321.572 365.729 322.702 367.17 322.96C369.049 323.297 369.687 322.357 370.656 320.931C370.882 323.632 369.07 326.456 368.353 329.094C367.675 331.594 367.225 334.045 366.085 336.438C364.973 338.772 364.02 341.074 362.895 343.386C362.377 344.45 361.892 345.53 361.368 346.591C361.102 347.128 360.79 347.869 360.395 348.321C359.467 349.383 359.615 348.869 358.528 349.473C356.162 350.79 357.051 350.462 356.996 353.182C356.942 355.866 355.569 357.837 353.367 359.345C348.696 362.546 344.089 363.436 338.779 365.053C333.831 366.56 328.619 367.853 323.38 367.824C316.964 367.788 310.632 366.944 304.215 366.859C297.136 366.765 289.989 366.804 282.924 367.049C280.014 367.15 277.311 367.28 274.502 368.024C271.239 368.89 268.083 368.547 264.72 368.415C257.545 368.136 250.124 367.579 243.043 367.529C237.945 367.493 232.566 367.136 227.448 367.444ZM41.412 370.232C40.1365 370.907 37.2775 370.63 35.9952 370.443C33.7365 370.112 33.4945 369.215 32.0614 367.196C29.5947 363.72 27.592 360.391 26.1408 356.364C23.3633 348.657 22.2292 340.772 21.0099 332.71C19.6547 323.752 22.1295 314.466 23.0149 305.569C23.2183 303.527 23.4965 301.505 23.8182 299.479C24.0108 298.268 24.0611 294.147 24.8563 293.099C26.3841 291.084 33.4886 292.709 36.282 292.892C44.0789 293.402 51.927 293.522 59.7203 293.61C63.8756 293.657 68.0541 293.832 72.1682 293.864C74.0576 293.879 75.9049 293.785 77.8011 293.601C78.4355 293.539 79.0548 293.393 79.6937 293.358C81.8813 293.236 81.7168 292.918 82.2823 294.86C83.2727 298.261 82.5106 302.589 82.7707 306.119C83.1187 310.837 83.3067 315.621 83.2206 320.349C83.1409 324.717 83.2895 329.076 83.1268 333.454C83.0589 335.268 82.8613 336.746 82.3842 338.478C81.8446 340.435 81.251 345.009 79.9071 346.364C79.7544 346.518 78.6122 346.159 78.3091 346.543C77.8419 347.135 77.9276 348.387 77.6068 348.769C76.5687 350.007 74.4233 350.105 72.8669 350.661C68.5965 352.188 64.679 353.845 60.6541 355.903C57.0579 357.742 51.2596 359.307 49.0974 362.934C48.106 364.597 47.9724 366.79 47.0607 368.506C46.0227 370.461 48.0997 369.439 45.5565 370.232C44.411 370.589 42.5859 370.232 41.412 370.232ZM420.543 348.126C420.867 352.639 423.404 356.938 424.287 361.376C424.7 363.454 425.401 365.497 425.887 367.563C426.353 369.545 428.035 371.892 427.865 373.853C421.654 371.635 415.363 371.077 408.871 370.479C402.719 369.912 396.219 369.686 390.118 369.683C383.901 369.68 377.254 369.072 370.852 368.977C364.158 368.879 357.362 368.705 350.765 368.009C354.215 365.448 358.531 363.043 361.078 359.48C363.848 355.607 365.286 350.754 367.723 346.666C372.613 338.464 375.721 328.287 378.284 319.072C383.459 300.47 389.242 282.211 390.636 262.916C393.288 264.277 395.394 269.559 396.722 272.19C398.417 275.548 399.304 279.188 400.406 282.758C402.676 290.11 404.246 297.733 407.024 305.015C412.335 318.935 415.748 333.934 420.543 348.126ZM83.3883 239.707C82.2397 248.027 79.831 256.454 79.7386 264.874C79.7182 266.727 80.0312 268.784 79.6461 270.611C79.2347 272.561 77.8967 274.285 77.1242 276.138C75.8981 279.08 72.793 285.11 75.7876 287.602C75.8483 285.237 78.0082 282.233 79.0961 280.164C80.7358 277.047 82.8903 274.198 84.6678 271.158C88.3886 264.796 92.558 258.571 97.3532 252.962C102.024 247.499 107.407 242.653 112.359 237.451C113.847 235.888 125.785 220.844 126.259 221.054C122.556 235.365 116.262 247.818 107.648 259.8C103.425 265.675 98.3559 269.54 93.2146 274.517C88.9333 278.661 80.8641 283.092 82.3443 289.883C75.6516 289.238 69.0029 288.208 62.2495 288.208C63.36 279.641 64.2105 271.209 66.1932 262.783C68.4442 253.215 69.9689 243.36 71.8737 233.707C73.8175 223.853 77.1147 214.312 79.1658 204.476C81.13 195.057 82.8174 185.656 84.2573 176.132C85.4471 181.409 85.0081 187.205 85.4304 192.589C85.8617 198.09 85.82 203.49 85.6764 209.023C85.4104 219.3 84.3176 229.454 83.3883 239.707ZM54.3873 190.707C54.3497 186.308 53.4992 181.968 53.2369 177.58C53.1562 176.233 51.8183 167.047 53.0661 166.567C54.0924 168.81 54.3316 171.679 55.2636 174.032C56.1947 176.383 57.4403 178.622 58.3338 180.989C60.2694 186.117 60.9373 191.919 61.1457 197.37C61.6174 209.701 61.8612 222.003 61.0343 234.334C60.6799 239.619 60.4081 244.914 60.505 250.209C60.6115 256.036 61.5019 261.094 60.4208 266.873C59.3506 272.596 58.6782 278.295 58.3216 284.102C58.0715 288.177 57.9709 287.889 54.0914 287.602C51.2908 287.395 48.4626 287.617 45.6579 287.488C46.9692 271.604 47.1835 255.688 49.2782 239.865C50.347 231.793 50.3756 223.604 51.7032 215.562C52.3629 211.567 53.4698 207.652 54.106 203.652C54.7888 199.358 54.4525 195.035 54.3873 190.707ZM338.075 180.711C330.607 181.36 322.663 183.598 315.008 182.12C316.269 181.608 319.572 180.901 318.085 178.879C316.574 176.824 314.028 179.431 312.521 179.162C311.592 178.996 309.538 175.102 308.965 174.296C307.666 172.464 307.509 172.145 305.171 171.676C302.907 171.221 302.393 171.713 302.107 169.457C301.777 166.862 302.673 163.944 302.584 161.291C302.393 155.578 300.555 150.569 298.843 145.194C306.114 146.78 313.224 148.66 320.658 149.681C323.836 150.118 328.78 151.126 331.667 148.961C332.418 148.398 332.298 147.637 332.913 146.985C333.943 145.89 335.854 144.757 337.315 144.445C346.308 142.527 347.185 155.375 342.679 160.183C341.55 161.388 339.98 161.983 338.824 163.087C337.281 164.559 337.154 166.11 336.929 168.358C336.507 172.572 337.081 176.803 338.874 180.658L338.075 180.711ZM228.949 241.37C226.294 241.875 223.524 241.76 220.862 242.191C219.916 242.344 217.081 242.878 216.25 242.324C214.98 241.478 214.529 238.374 213.929 236.929C212.873 234.388 211.379 232.171 210.372 229.582C206.258 219.011 202.422 208.398 197.446 198.187C199.353 197.691 200.817 197.671 202.74 197.414C204.742 197.147 206.557 195.96 208.467 195.45C210.283 194.966 212.185 195.089 213.984 194.526C214.975 194.216 215.825 193.526 216.802 193.285C218.359 192.901 220.177 192.676 221.103 193.701C222.052 194.752 222.385 197.633 222.901 198.991C224.277 202.607 225.875 206.097 227.027 209.796C228.067 213.133 229.055 216.434 229.97 219.801C230.937 223.355 232.843 226.285 234.004 229.681C234.887 232.265 235.72 234.907 235.852 237.663C235.98 240.352 236.371 240.523 233.688 240.953C232.334 241.169 230.223 241.976 228.949 241.37ZM54.2845 367.217C53.593 367.54 52.941 367.497 52.3293 367.088C58.3238 364.551 64.1547 361.031 70.4084 359.29C76.2746 357.657 81.9764 355.706 87.6279 353.696C92.22 352.062 96.3487 350.79 100.5 347.914C103.021 346.168 105.259 344.205 106.991 341.655C108.919 338.814 109.348 334.773 111.436 332.215C114.254 335.317 117.565 337.666 120.899 340.131C122.053 340.984 124.82 342.844 125.215 344.163C125.713 345.829 124.379 347.422 123.719 349.107C122.029 353.423 121.204 357.737 120.287 362.224C119.92 364.022 119.126 366.726 117.652 367.479C116.31 368.165 112.424 367.666 110.754 367.539C102.04 366.878 93.4819 366.2 84.7163 366.803C74.7971 367.484 64.1778 367.955 54.2845 367.217ZM36.8814 287.239C35.2979 287.245 33.751 287.046 32.1733 287.046C33.084 282.784 30.955 277.269 30.2001 273.015C29.3555 268.256 28.7126 263.335 28.1494 258.538C26.9622 248.434 26.4244 238.453 26.409 228.275C26.3945 218.426 24.6057 209.426 22.1001 199.958C19.4096 189.79 15.0036 180.646 11.3607 170.84C15.3566 172.957 17.5686 177.911 19.6683 181.699C22.3225 186.488 24.0905 191.79 25.1743 197.166C27.2654 207.537 29.5589 217.939 31.9717 228.293C34.4841 239.074 35.9612 249.953 38.8393 260.646C40.243 265.86 42.1514 272.275 42.2574 277.653C42.3014 279.877 42.9702 284.536 41.9643 286.468C41.0237 288.275 38.9439 287.423 36.8814 287.239ZM275.913 273.863C275.997 274.97 276.076 276.023 276.272 277.117C274.078 277.096 271.3 274.815 269.419 273.791C267.127 272.543 264.833 271.167 262.591 269.913C258.264 267.492 253.352 265.897 248.732 263.908C243.424 261.622 238.546 258.861 233.47 256.11C231.697 255.149 218.955 249.613 219.169 248.101C221.966 248.008 224.764 247.914 227.562 247.821C229.96 247.741 233.674 248.285 235.971 247.542C237.229 247.134 238.641 245.635 239.116 244.461C239.586 243.3 238.53 237.957 239.144 237.616C242.275 240.82 244.243 245.078 247.042 248.535C250.136 252.355 254.133 254.586 258.538 256.616C263.403 258.858 268.439 260.594 273.41 262.515C275.507 263.325 275.466 263.789 275.648 266.093C275.853 268.669 275.83 271.281 275.913 273.863ZM23.1091 370.757C17.8355 371.324 12.431 371.001 7.11612 371.443C5.18231 371.604 2.50134 371.844 4.44693 374.445C5.67212 376.083 9.59683 375.558 11.377 375.671C16.1568 375.976 21.2174 375.812 26.008 375.741C27.0166 375.727 28.1312 375.426 29.1507 375.494C30.3274 375.572 31.7365 376.42 32.809 376.413C33.4701 376.409 33.7071 375.711 34.277 375.646C35.519 375.507 36.7605 375.404 38.0128 375.405C56.9478 375.409 75.6227 375.027 94.5105 375.007C103.542 374.997 112.719 374.841 121.747 374.416C123.642 374.327 134.439 374.715 134.14 371.294C133.986 369.532 130.462 369.284 129.176 369.096C128.224 368.958 127.235 368.98 126.28 368.928C123.744 368.792 122.633 369.404 123.168 366.622C125.197 356.072 128.834 347.353 136.604 339.767C142.957 333.564 150.607 327.937 157.803 322.757C166.541 316.468 173.629 309.853 178.816 300.228C181.846 294.608 184.382 288.862 185.938 282.647C186.498 280.412 186.511 277.869 187.198 275.714C187.726 274.054 188.929 272.893 189.638 271.174C198.331 285.727 209.853 297.903 220.417 311.025C225.465 317.294 231.223 323.248 237.255 328.701C239.044 330.32 240.715 332.01 242.385 333.751C243.782 335.209 246.001 336.505 247.181 338.122C248.312 339.673 248.034 339.599 246.311 340.831C244.034 342.459 241.524 343.812 239.211 345.4C235.514 347.938 231.478 350.082 228.172 353.137C224.597 356.44 221.473 360.267 218.348 363.992C216.265 366.474 213.532 369.66 213.009 372.799C212.835 373.838 212.176 376.406 213.046 377.167C213.789 377.817 213.714 377.57 214.636 377.174C215.845 376.654 216.201 375.462 217.678 374.894C221.456 373.441 226.028 373.94 229.96 373.922C233.893 373.904 237.858 374.347 241.789 374.331C250.766 374.294 259.552 375.022 268.526 375.414C278.057 375.829 287.705 374.832 297.205 374.973C304.243 375.078 311.469 374.551 318.702 374.943C322.422 375.144 326.076 374.677 329.704 374.625C334.453 374.557 339.331 375.204 344.121 375.296C351.983 375.448 359.749 375.448 367.659 375.637C384.674 376.045 401.597 376.467 418.621 376.737C420.892 376.773 423.378 376.695 425.623 376.952C428.005 377.224 426.775 377.731 428.409 378.591C432.985 380.997 431.928 372.079 431.818 370.325C431.23 360.927 428.85 351.709 425.989 342.786C423.275 334.323 421.071 325.466 418.773 316.82C416.257 307.357 412.979 298.282 410.002 288.912C406.951 279.311 404.468 269.335 398.928 260.825C397.666 258.886 396.362 256.8 394.332 255.578C392.057 254.208 391.959 255.008 391.961 252.501C391.962 250.14 391.817 246.985 392.373 244.731C392.875 242.696 392.798 243.903 393.929 242.44C394.85 241.251 395.813 240.438 396.474 238.994C400.532 243.118 409.821 240.942 413.742 237.972C418.54 234.337 422.195 228.205 423.535 222.365C424.61 217.675 423.291 208.736 418.112 206.48C415.587 205.381 406.314 204.55 405.943 200.967C405.752 199.117 409.015 196.516 409.768 194.926C411.164 191.979 412.504 188.06 412.892 184.83C413.65 178.526 410.794 171.477 406.245 167.218C397.901 159.406 383.22 155.397 372.486 160.354C374.754 151.669 376.124 144.177 374.981 135.144C373.997 127.361 369.416 123.007 363.112 119.131C352.355 112.515 337.726 109.903 325.426 111.827C322.63 112.264 319.948 113.202 317.36 113.948C313.6 115.032 309.099 114.671 305.549 116.433C302.975 117.709 301.02 120.252 298.76 121.95C296.121 123.933 293.928 126.891 292.094 129.627C288.172 135.478 289.705 146.338 292.987 152.211C293.691 153.471 294.56 154.531 295.725 155.391C296.937 156.285 298.785 156.564 299.41 157.724C301.01 160.696 299.467 167.131 299.253 170.344C299.005 174.074 300.886 176.876 305.106 177.173C307.548 177.346 307.626 175.926 308.795 178.847C309.552 180.741 310.241 182.803 311.334 184.539C313.588 188.116 317.717 187.767 321.477 187.67C325.831 187.557 330.119 186.868 334.474 186.433C333.324 190.127 330.175 192.995 328.209 196.286C325.55 200.737 323.949 204.427 323.517 209.613C323.186 213.598 323.901 216.745 326.622 219.71C327.748 220.938 328.746 220.998 328.466 222.414C328.296 223.278 326.806 224.703 326.278 225.392C324.883 227.216 323.263 228.89 322.036 230.838C317.311 238.332 315.915 249.756 315.903 258.48C315.903 258.88 315.69 259.73 315.866 260.144C315.997 260.45 316.988 261.418 317.003 261.501C317.196 262.622 316.105 264.545 314.393 264.735C312.595 264.935 309.301 263.431 307.628 262.937C304.951 262.146 302.223 261.562 299.552 260.749C295.238 259.437 290.944 258.391 286.558 257.363C284.577 256.899 282.584 256.512 280.596 256.077C278.331 255.583 277.279 254.628 276.11 256.938C275.107 258.919 275.731 259.279 273.302 258.28C270.89 257.288 268.533 256.058 266.179 254.938C262.026 252.963 257.079 251.203 253.497 248.288C247.521 243.425 245.308 235.68 239.589 230.52C237.996 229.083 237.046 229.057 236.039 227.067C234.961 224.937 234.405 222.205 233.839 219.913C232.846 215.9 232.14 211.874 231.239 207.864C230.118 202.87 227.694 198.347 225.926 193.583C225.237 191.727 224.88 189.368 223.768 187.7C223.474 187.257 222.911 187.008 222.681 186.642C221.891 185.385 221.899 185.04 221.694 183.528C220.736 176.464 216.529 180.181 211.932 181.8C209.995 182.483 200.797 186.909 204.309 189.853C200.122 191.071 193.417 190.409 193.473 196.423C193.502 199.504 195.341 202.8 196.328 205.684C197.205 208.245 198.052 210.816 198.942 213.373C200.893 218.973 203.259 224.407 205.163 230.025C206.03 232.585 206.746 235.206 207.954 237.622C209.019 239.754 211.599 242.103 212.024 244.434C200.867 239.664 190.546 232.766 178.058 233.206C172.59 233.398 167.628 235.702 164.608 240.521C160.822 246.561 158.331 253.323 154.631 259.419C141.169 281.594 125.113 301.739 110.334 322.996C109.199 324.63 107.74 326.174 107.346 328.193C107.089 329.51 107.587 330.827 107.279 332.092C106.64 334.722 103.41 338.005 101.219 339.516C97.0211 342.412 90.196 346.497 84.9569 346.136C88.245 338.216 88.201 329.538 88.0484 321.09C87.9029 313.065 87.0375 305.104 86.0103 297.162C85.7779 295.365 85.5754 293.699 85.0602 291.958C84.4689 289.959 83.657 290.149 85.4281 288.353C88.1539 285.587 91.3963 283.311 94.1443 280.511C100.088 274.456 106.179 269.71 110.857 262.478C115.305 255.601 119.999 248.524 123.292 240.992C126.682 233.239 128.037 224.958 129.72 216.747C130.403 213.415 132.893 209.696 132.393 206.216C131.76 201.819 129.726 205.021 128.897 207.387C126.37 214.611 120.452 221.077 115.55 226.886C110.255 233.162 103.778 238.414 98.2499 244.507C92.2305 251.144 88.1073 258.771 82.7544 265.855C82.7544 257.063 85.7494 248.111 86.9745 239.413C88.0525 231.758 88.3909 224.078 89.0724 216.39C90.6197 198.925 89.2826 180.945 87.1109 163.605C86.0787 155.37 86.6642 147.329 86.6329 139.065C86.6229 136.435 87.709 130.374 86.3248 128.04C83.6737 123.57 82.1273 133.345 81.9932 134.802C81.1917 143.483 82.6293 152.067 81.8949 160.711C81.1273 169.738 79.4617 178.512 78.0444 187.434C76.5089 197.095 74.0091 206.538 71.6159 216.013C69.103 225.962 66.9898 236.118 64.196 245.987C63.4425 242.885 64.4995 239.074 64.7084 235.914C65.0066 231.393 65.5888 226.871 65.6391 222.338C65.7197 215.113 65.7759 207.754 65.3681 200.563C64.9662 193.475 65.0877 186.048 62.9187 179.219C61.8893 175.978 60.3795 172.815 58.9024 169.762C57.0801 165.998 56.4358 162.347 55.4267 158.343C54.5622 154.914 53.2971 151.575 52.7213 148.077C52.3633 145.902 51.3642 139.481 48.8795 144.346C47.4368 147.17 48.0603 151.356 48.0199 154.389C47.9683 158.279 48.5623 162.06 48.6534 165.933C48.8305 173.532 48.9579 181.121 49.5233 188.707C50.1164 196.666 49.5985 203.798 48.0879 211.64C46.4345 220.224 45.9507 228.827 45.0938 237.516C44.6521 242.002 43.9072 246.463 43.5474 250.956C43.3571 253.335 44.3331 260.158 42.6322 261.852C42.4677 257.731 41.2896 253.607 40.3966 249.592C39.3386 244.834 38.9113 239.834 38.1315 235.008C36.8687 227.191 34.4184 219.726 32.7972 211.996C29.4557 196.062 26.679 175.582 12.6747 165.153C10.8424 163.788 8.82883 162.781 6.8479 161.658C5.72647 161.022 4.06046 159.377 2.77728 159.09C1.37674 158.777 0.792694 159.02 0.224976 160.649C-0.566589 162.919 0.881042 163.979 2.23264 165.628C6.90997 171.334 8.90811 178.648 11.7961 185.34C18.4096 200.663 21.3357 216.825 21.3692 233.388C21.3869 242.058 21.9836 250.421 22.9061 259.039C23.8989 268.314 25.206 278.123 28.0175 287.046C25.1979 287.679 22.1386 286.735 21.3733 290.02C21.1852 290.827 21.5251 291.781 21.3171 292.831C21.115 293.852 20.6288 294.868 20.3411 295.872C19.7467 297.948 19.4322 299.998 19.1432 302.13C18.0254 310.372 16.106 318.211 15.9017 326.567C15.7137 334.291 17.2224 342.117 18.6125 349.693C20.0131 357.324 24.0298 363.828 27.192 370.729C25.8308 370.729 24.4702 370.743 23.1091 370.757Z" fill="#353535"/>
<path fill-rule="evenodd" clip-rule="evenodd" d="M202.083 353.215C203.583 353.64 210.823 354.442 210.822 356.719C210.821 358.085 203.59 358.058 202.311 358.206C202.234 356.543 202.159 354.879 202.083 353.215ZM186.102 368.928C181.93 369.723 176.266 368.605 173.599 364.918C172.353 363.196 171.762 360.576 171.356 358.52C170.968 356.561 169.772 351.672 170.586 349.835C171.585 347.58 181.171 349.937 183.963 350.196C188.833 350.647 193.869 350.7 198.743 350.381C198.743 355.425 199 360.34 196.041 364.681C193.905 367.814 189.895 368.553 186.102 368.928ZM186.941 375.157C191.474 373.494 196.233 374.575 199.185 369.697C199.934 368.46 200.565 367.129 201.018 365.755C201.239 365.152 201.412 364.536 201.534 363.904C201.303 362.544 201.8 362.161 203.025 362.754C205.427 362.285 208.062 363.939 210.593 363.451C216.732 362.27 215.617 353.456 211.497 350.405C210.683 349.802 209.87 349.635 208.939 349.337C206.885 348.681 205.774 349.414 203.896 349.227C202.378 349.077 201.961 347.482 200.33 346.779C199.262 346.32 197.779 346.355 196.656 346.309C190.781 346.067 184.886 346.069 178.973 345.685C176.215 345.506 173.237 345.944 170.535 345.472C169.27 345.25 169.452 344.406 168.254 345.147C167.014 345.913 167.549 348.748 167.612 349.878C167.974 356.414 168.362 363.424 171.856 369.139C175.052 374.367 181.341 374.902 186.941 375.157Z" fill="#353535"/>
<path fill-rule="evenodd" clip-rule="evenodd" d="M426.351 376.958C424.893 376.943 423.435 376.927 421.981 376.912C423.442 376.928 424.896 376.943 426.351 376.958Z" fill="#353535"/>
<path fill-rule="evenodd" clip-rule="evenodd" d="M21.3602 237.596C21.3629 236.191 21.3661 234.787 21.3693 233.386C21.3665 234.791 21.3634 236.193 21.3602 237.596Z" fill="#353535"/>
<path fill-rule="evenodd" clip-rule="evenodd" d="M392.368 243.362C392.373 244.73 392.378 246.098 392.382 247.463C392.378 246.094 392.373 244.728 392.368 243.362Z" fill="#353535"/>
<path fill-rule="evenodd" clip-rule="evenodd" d="M271.134 375.408C269.973 375.409 268.812 375.411 267.657 375.414C268.82 375.413 269.976 375.41 271.134 375.408Z" fill="#353535"/>
<path fill-rule="evenodd" clip-rule="evenodd" d="M341.589 375.129C340.428 375.132 339.268 375.136 338.113 375.141C339.275 375.137 340.432 375.133 341.589 375.129Z" fill="#353535"/>
<path fill-rule="evenodd" clip-rule="evenodd" d="M87.8952 318.32C87.9459 319.244 87.9976 320.167 88.0483 321.088C87.9971 320.164 87.9459 319.242 87.8952 318.32Z" fill="#353535"/>
<path fill-rule="evenodd" clip-rule="evenodd" d="M23.108 370.754C24.0048 370.745 24.9017 370.736 25.7986 370.726C24.8976 370.351 24.0008 370.367 23.108 370.754Z" fill="#353535"/>
<path fill-rule="evenodd" clip-rule="evenodd" d="M102.721 374.843C102.077 374.833 101.434 374.823 100.796 374.812C101.441 374.822 102.081 374.833 102.721 374.843Z" fill="#353535"/>
<path fill-rule="evenodd" clip-rule="evenodd" d="M21.7095 248.989C21.6936 248.291 21.6778 247.593 21.6619 246.898C21.6778 247.597 21.6936 248.293 21.7095 248.989Z" fill="#353535"/>
<path fill-rule="evenodd" clip-rule="evenodd" d="M81.8947 160.71C81.9477 159.99 82.0007 159.271 82.0542 158.553C82.0007 159.273 81.9477 159.992 81.8947 160.71Z" fill="#353535"/>
<path fill-rule="evenodd" clip-rule="evenodd" d="M21.392 240.344C21.3833 239.623 21.3747 238.902 21.3661 238.183C21.3747 238.905 21.3833 239.625 21.392 240.344Z" fill="#353535"/>
<path fill-rule="evenodd" clip-rule="evenodd" d="M223.783 373.948C223.211 373.957 222.638 373.965 222.071 373.973C222.644 373.963 223.214 373.956 223.783 373.948Z" fill="#353535"/>
<path fill-rule="evenodd" clip-rule="evenodd" d="M76.3879 375.125C75.8287 375.136 75.2689 375.147 74.7147 375.159C75.2762 375.148 75.8318 375.137 76.3879 375.125Z" fill="#353535"/>
<path fill-rule="evenodd" clip-rule="evenodd" d="M15.9659 324.394C16.0063 323.761 16.0466 323.128 16.0861 322.497C16.0457 323.13 16.0058 323.762 15.9659 324.394Z" fill="#353535"/>
<path fill-rule="evenodd" clip-rule="evenodd" d="M26.0081 375.74C25.5526 375.737 25.0971 375.735 24.6471 375.734C25.1039 375.737 25.5562 375.739 26.0081 375.74Z" fill="#353535"/>
<path fill-rule="evenodd" clip-rule="evenodd" d="M88.045 375.154C87.5941 375.143 87.1432 375.131 86.6968 375.121C87.1495 375.132 87.5977 375.143 88.045 375.154Z" fill="#353535"/>
<path fill-rule="evenodd" clip-rule="evenodd" d="M189.398 374.809C188.901 374.806 188.405 374.803 187.913 374.8C188.411 374.802 188.904 374.805 189.398 374.809Z" fill="#353535"/>
<path fill-rule="evenodd" clip-rule="evenodd" d="M303.854 374.807C303.382 374.81 302.91 374.814 302.443 374.818C302.917 374.815 303.385 374.811 303.854 374.807Z" fill="#353535"/>
<path fill-rule="evenodd" clip-rule="evenodd" d="M331.697 374.883C331.216 374.856 330.736 374.829 330.259 374.803C330.742 374.83 331.219 374.856 331.697 374.883Z" fill="#353535"/>
<path fill-rule="evenodd" clip-rule="evenodd" d="M198.393 191.132C199.109 191.071 199.825 191.009 200.542 190.947C199.825 190.997 199.066 190.573 198.393 191.132Z" fill="#353535"/>
<path fill-rule="evenodd" clip-rule="evenodd" d="M15.8975 371.028C16.6036 370.956 17.3097 370.885 18.0157 370.813C17.3092 370.885 16.6036 370.956 15.8975 371.028Z" fill="#353535"/>
<path fill-rule="evenodd" clip-rule="evenodd" d="M65.1369 195.489C65.184 196.109 65.232 196.73 65.2792 197.348C65.2316 196.727 65.184 196.108 65.1369 195.489Z" fill="#353535"/>
<path fill-rule="evenodd" clip-rule="evenodd" d="M21.2141 221.335C21.1661 220.747 21.118 220.16 21.07 219.574C21.118 220.163 21.1665 220.749 21.2141 221.335Z" fill="#353535"/>
<path fill-rule="evenodd" clip-rule="evenodd" d="M65.418 205.105C65.4688 205.724 65.52 206.343 65.5703 206.959C65.5196 206.34 65.4688 205.722 65.418 205.105Z" fill="#353535"/>
<path fill-rule="evenodd" clip-rule="evenodd" d="M21.5132 245.058C21.5178 244.46 21.5223 243.862 21.5264 243.265C21.1411 243.862 21.1565 244.458 21.5132 245.058Z" fill="#353535"/>
<path fill-rule="evenodd" clip-rule="evenodd" d="M87.8851 330.949C87.8905 331.548 87.8955 332.148 87.9018 332.745C88.297 332.141 88.2182 331.543 87.8851 330.949Z" fill="#353535"/>
<path fill-rule="evenodd" clip-rule="evenodd" d="M42.8912 261.592C42.9601 260.986 43.0295 260.379 43.0984 259.774C43.029 260.381 42.9601 260.987 42.8912 261.592Z" fill="#353535"/>
<path fill-rule="evenodd" clip-rule="evenodd" d="M415.457 205.903C415.925 206.521 416.563 206.098 417.12 206.173C416.565 206.083 416.011 205.993 415.457 205.903Z" fill="#353535"/>
<path fill-rule="evenodd" clip-rule="evenodd" d="M184.018 346.115C184.61 346.116 185.201 346.117 185.793 346.117C185.201 346.117 184.61 346.116 184.018 346.115Z" fill="#353535"/>
<path fill-rule="evenodd" clip-rule="evenodd" d="M89.5496 208.449C89.4943 208.953 89.4394 209.458 89.3842 209.96C89.4394 209.455 89.4943 208.952 89.5496 208.449Z" fill="#353535"/>
<path fill-rule="evenodd" clip-rule="evenodd" d="M381.773 158.385C382.367 158.397 382.962 158.408 383.557 158.42C382.968 158.074 382.376 157.974 381.773 158.385Z" fill="#353535"/>
<path fill-rule="evenodd" clip-rule="evenodd" d="M65.4328 213.825C65.4713 214.354 65.5099 214.882 65.548 215.408C65.5094 214.879 65.4713 214.352 65.4328 213.825Z" fill="#353535"/>
<path fill-rule="evenodd" clip-rule="evenodd" d="M81.7349 148.938C81.6886 148.456 81.6429 147.974 81.5971 147.495C81.6433 147.978 81.6886 148.458 81.7349 148.938Z" fill="#353535"/>
<path fill-rule="evenodd" clip-rule="evenodd" d="M86.4063 147.428C86.453 147.951 86.4997 148.474 86.5459 148.995C86.4992 148.471 86.453 147.949 86.4063 147.428Z" fill="#353535"/>
<path fill-rule="evenodd" clip-rule="evenodd" d="M344.623 112.509C345.228 112.582 345.833 112.656 346.438 112.729C345.833 112.655 345.228 112.582 344.623 112.509Z" fill="#353535"/>
<path fill-rule="evenodd" clip-rule="evenodd" d="M388.312 158.801C388.933 158.865 389.554 158.928 390.175 158.992C389.554 158.928 388.933 158.865 388.312 158.801Z" fill="#353535"/>
<path fill-rule="evenodd" clip-rule="evenodd" d="M48.1576 160.334C48.1195 159.847 48.0819 159.36 48.0443 158.877C48.0819 159.364 48.12 159.849 48.1576 160.334Z" fill="#353535"/>
<path fill-rule="evenodd" clip-rule="evenodd" d="M408.687 240.604C408.329 240.61 407.972 240.615 407.62 240.62C407.979 240.615 408.333 240.61 408.687 240.604Z" fill="#353535"/>
<path fill-rule="evenodd" clip-rule="evenodd" d="M86.3882 300.634C86.424 301.173 86.4598 301.711 86.4956 302.248C86.4594 301.71 86.4236 301.172 86.3882 300.634Z" fill="#353535"/>
<path fill-rule="evenodd" clip-rule="evenodd" d="M49.9201 195.82C49.9346 195.3 49.9487 194.782 49.9636 194.264C49.9482 194.784 49.9342 195.301 49.9201 195.82Z" fill="#353535"/>
<path fill-rule="evenodd" clip-rule="evenodd" d="M329.396 111.28C329.948 111.28 330.499 111.281 331.05 111.281C330.498 110.902 329.947 110.911 329.396 111.28Z" fill="#353535"/>
<path fill-rule="evenodd" clip-rule="evenodd" d="M182.18 233.452C182.784 233.468 183.388 233.483 183.991 233.499C183.398 233.079 182.794 233.069 182.18 233.452Z" fill="#353535"/>
<path fill-rule="evenodd" clip-rule="evenodd" d="M129.399 373.927C129.041 373.934 128.682 373.942 128.329 373.951C128.689 373.944 129.044 373.935 129.399 373.927Z" fill="#353535"/>
<path fill-rule="evenodd" clip-rule="evenodd" d="M115.917 374.558C115.559 374.545 115.201 374.532 114.849 374.52C115.208 374.533 115.562 374.546 115.917 374.558Z" fill="#353535"/>
<path fill-rule="evenodd" clip-rule="evenodd" d="M326.922 374.807C326.549 374.817 326.176 374.826 325.808 374.835C326.182 374.826 326.552 374.817 326.922 374.807Z" fill="#353535"/>
<path fill-rule="evenodd" clip-rule="evenodd" d="M16.2758 318.388C16.3288 317.875 16.3818 317.361 16.4353 316.85C16.3818 317.364 16.3288 317.876 16.2758 318.388Z" fill="#353535"/>
<path fill-rule="evenodd" clip-rule="evenodd" d="M64.9762 231.877C64.9336 232.366 64.8914 232.855 64.8497 233.341C64.8919 232.851 64.934 232.364 64.9762 231.877Z" fill="#353535"/>
<path fill-rule="evenodd" clip-rule="evenodd" d="M46.2341 223.479C46.2921 222.961 46.3502 222.442 46.4077 221.925C46.3497 222.444 46.2921 222.962 46.2341 223.479Z" fill="#353535"/>
<path fill-rule="evenodd" clip-rule="evenodd" d="M323.896 375.117C323.52 375.111 323.144 375.105 322.771 375.1C323.149 375.106 323.523 375.111 323.896 375.117Z" fill="#353535"/>
<path fill-rule="evenodd" clip-rule="evenodd" d="M186.94 375.157C186.574 375.14 186.209 375.124 185.847 375.108C186.214 375.125 186.577 375.141 186.94 375.157Z" fill="#353535"/>
<path fill-rule="evenodd" clip-rule="evenodd" d="M49.2936 185.61C49.3104 185.084 49.3267 184.559 49.343 184.034C49.3263 184.56 49.3099 185.085 49.2936 185.61Z" fill="#353535"/>
<path fill-rule="evenodd" clip-rule="evenodd" d="M359.556 375.46C359.189 375.457 358.823 375.454 358.461 375.452C358.829 375.455 359.192 375.458 359.556 375.46Z" fill="#353535"/>
<path fill-rule="evenodd" clip-rule="evenodd" d="M49.4468 375.454C49.0697 375.458 48.6922 375.462 48.3196 375.466C48.699 375.463 49.0729 375.458 49.4468 375.454Z" fill="#353535"/>
<path fill-rule="evenodd" clip-rule="evenodd" d="M41.3022 375.409C40.9379 375.435 40.574 375.462 40.2141 375.487C40.5798 375.461 40.941 375.435 41.3022 375.409Z" fill="#353535"/>
<path fill-rule="evenodd" clip-rule="evenodd" d="M38.0128 375.403C37.6421 375.414 37.2709 375.425 36.9047 375.433C37.2768 375.422 37.6448 375.413 38.0128 375.403Z" fill="#353535"/>
<path fill-rule="evenodd" clip-rule="evenodd" d="M21.1235 225.563C21.148 225.046 21.172 224.528 21.196 224.013C21.1716 224.531 21.148 225.047 21.1235 225.563Z" fill="#353535"/>
<path fill-rule="evenodd" clip-rule="evenodd" d="M270.025 368.628C268.897 368.57 267.768 368.511 266.64 368.452C267.768 368.511 268.897 368.57 270.025 368.628Z" fill="#353535"/>
<path fill-rule="evenodd" clip-rule="evenodd" d="M338.075 180.71C337.096 180.795 336.116 180.881 335.138 180.965C336.117 180.88 337.096 180.795 338.075 180.71Z" fill="#353535"/>
<path fill-rule="evenodd" clip-rule="evenodd" d="M61.6193 223.377C61.5889 224.313 61.5576 225.25 61.5273 226.183C61.5581 225.246 61.5889 224.312 61.6193 223.377Z" fill="#353535"/>
<path fill-rule="evenodd" clip-rule="evenodd" d="M41.4119 370.23C40.3894 370.292 39.3675 370.354 38.345 370.416C39.3738 370.463 40.418 370.756 41.4119 370.23Z" fill="#353535"/>
<path fill-rule="evenodd" clip-rule="evenodd" d="M47.4607 259.464C47.453 258.571 47.4453 257.678 47.438 256.787C47.4458 257.681 47.453 258.572 47.4607 259.464Z" fill="#353535"/>
<path fill-rule="evenodd" clip-rule="evenodd" d="M50.0769 287.53C49.18 287.542 48.2822 287.554 47.3858 287.566C48.2831 287.554 49.18 287.542 50.0769 287.53Z" fill="#353535"/>
<path fill-rule="evenodd" clip-rule="evenodd" d="M275.848 271.826C275.871 272.507 275.893 273.187 275.914 273.865C275.892 273.183 275.87 272.505 275.848 271.826Z" fill="#353535"/>
<path fill-rule="evenodd" clip-rule="evenodd" d="M35.1506 243C35.1874 243.677 35.2241 244.354 35.2599 245.028C35.2227 244.35 35.1864 243.675 35.1506 243Z" fill="#353535"/>
<path fill-rule="evenodd" clip-rule="evenodd" d="M54.2844 367.216C53.6318 367.171 52.9792 367.127 52.3279 367.085C52.8188 367.478 53.3123 367.511 54.2844 367.216Z" fill="#353535"/>
<path fill-rule="evenodd" clip-rule="evenodd" d="M58.651 278.661C58.6061 279.391 58.5613 280.121 58.5168 280.849C58.5617 280.118 58.6061 279.389 58.651 278.661Z" fill="#353535"/>
<path fill-rule="evenodd" clip-rule="evenodd" d="M302.605 163.4C302.599 162.695 302.592 161.989 302.584 161.287C302.591 161.993 302.598 162.696 302.605 163.4Z" fill="#353535"/>
<path fill-rule="evenodd" clip-rule="evenodd" d="M57.8613 287.677L55.429 287.624C56.2316 288.012 57.0424 288.026 57.8613 287.677Z" fill="#353535"/>
<path fill-rule="evenodd" clip-rule="evenodd" d="M35.4256 292.882C35.9994 292.887 36.5727 292.892 37.1423 292.898C36.5672 292.893 35.9962 292.888 35.4256 292.882Z" fill="#353535"/>
<path fill-rule="evenodd" clip-rule="evenodd" d="M245.424 367.496C244.63 367.507 243.836 367.517 243.042 367.527C243.842 367.928 244.637 367.985 245.424 367.496Z" fill="#353535"/>
<path fill-rule="evenodd" clip-rule="evenodd" d="M394.96 369.84C394.154 369.768 393.348 369.696 392.542 369.624C393.348 369.696 394.154 369.768 394.96 369.84Z" fill="#353535"/>
<path fill-rule="evenodd" clip-rule="evenodd" d="M61.3396 229.391C61.3002 230.124 61.2607 230.857 61.2213 231.587C61.2607 230.854 61.3002 230.122 61.3396 229.391Z" fill="#353535"/>
<path fill-rule="evenodd" clip-rule="evenodd" d="M318.491 182.43C317.812 182.095 317.127 182.039 316.435 182.394C317.121 182.406 317.806 182.418 318.491 182.43Z" fill="#353535"/>
<path fill-rule="evenodd" clip-rule="evenodd" d="M83.5564 237.854C83.5002 238.473 83.444 239.091 83.3878 239.707C83.4445 239.088 83.5002 238.471 83.5564 237.854Z" fill="#353535"/>
<path fill-rule="evenodd" clip-rule="evenodd" d="M26.182 223.428C26.531 222.823 26.5188 222.221 26.1648 221.625C26.1707 222.227 26.1761 222.828 26.182 223.428Z" fill="#353535"/>
<path fill-rule="evenodd" clip-rule="evenodd" d="M61.2283 202.429C61.2283 203.041 61.2278 203.653 61.2278 204.263C61.2283 203.65 61.2283 203.039 61.2283 202.429Z" fill="#353535"/>
<path fill-rule="evenodd" clip-rule="evenodd" d="M36.8815 287.237C36.1822 287.023 35.4829 286.72 34.7867 287.244C35.4851 287.242 36.1831 287.239 36.8815 287.237Z" fill="#353535"/>
<path fill-rule="evenodd" clip-rule="evenodd" d="M262.798 368.352C262.094 368.286 261.391 368.221 260.688 368.155C261.391 368.221 262.094 368.286 262.798 368.352Z" fill="#353535"/>
<path fill-rule="evenodd" clip-rule="evenodd" d="M359.238 368.353C358.593 368.07 357.95 367.921 357.315 368.375C357.956 368.367 358.597 368.36 359.238 368.353Z" fill="#353535"/>
<path fill-rule="evenodd" clip-rule="evenodd" d="M227.448 367.442C226.759 367.141 226.072 366.976 225.391 367.463C226.077 367.456 226.763 367.449 227.448 367.442Z" fill="#353535"/>
<path fill-rule="evenodd" clip-rule="evenodd" d="M380.816 278.103C380.764 278.727 380.712 279.35 380.661 279.972C380.713 279.348 380.765 278.726 380.816 278.103Z" fill="#353535"/>
<path fill-rule="evenodd" clip-rule="evenodd" d="M220.862 242.188C220.184 241.942 219.508 241.813 218.843 242.225C219.516 242.212 220.189 242.201 220.862 242.188Z" fill="#353535"/>
<path fill-rule="evenodd" clip-rule="evenodd" d="M61.3501 260.749C61.3125 261.359 61.2748 261.968 61.2377 262.576C61.2753 261.966 61.3129 261.358 61.3501 260.749Z" fill="#353535"/>
<path fill-rule="evenodd" clip-rule="evenodd" d="M381.255 205.757C381.311 206.248 381.367 206.74 381.423 207.228C381.366 206.736 381.311 206.247 381.255 205.757Z" fill="#353535"/>
<path fill-rule="evenodd" clip-rule="evenodd" d="M420.543 348.124C420.578 348.602 420.613 349.08 420.647 349.555C420.611 349.076 420.577 348.6 420.543 348.124Z" fill="#353535"/>
<path fill-rule="evenodd" clip-rule="evenodd" d="M47.16 263.974C47.198 263.48 47.2361 262.986 47.2742 262.494C47.2361 262.989 47.198 263.482 47.16 263.974Z" fill="#353535"/>
<path fill-rule="evenodd" clip-rule="evenodd" d="M96.5248 366.52C95.9207 366.524 95.3166 366.529 94.7129 366.533C95.317 366.529 95.9211 366.524 96.5248 366.52Z" fill="#353535"/>
<path fill-rule="evenodd" clip-rule="evenodd" d="M276.077 276.03C275.964 276.39 275.851 276.75 275.738 277.11C276.492 277.293 276.605 276.933 276.077 276.03Z" fill="#353535"/>
<path fill-rule="evenodd" clip-rule="evenodd" d="M230.789 241.376C230.175 241.373 229.562 241.371 228.948 241.368C229.561 241.659 230.174 241.859 230.789 241.376Z" fill="#353535"/>
<path fill-rule="evenodd" clip-rule="evenodd" d="M380.472 281.055C380.452 281.6 380.431 282.146 380.411 282.689C380.432 282.143 380.452 281.599 380.472 281.055Z" fill="#353535"/>
<path fill-rule="evenodd" clip-rule="evenodd" d="M373.982 368.95C373.39 368.949 372.798 368.949 372.206 368.948C372.799 368.949 373.39 368.949 373.982 368.95Z" fill="#353535"/>
<path fill-rule="evenodd" clip-rule="evenodd" d="M82.0671 286.801C82.0454 287.303 82.0231 287.805 82.0009 288.304C82.0222 287.801 82.0449 287.301 82.0671 286.801Z" fill="#353535"/>
<path fill-rule="evenodd" clip-rule="evenodd" d="M386.554 369.561C385.971 369.174 385.388 369.208 384.803 369.555C385.387 369.557 385.971 369.559 386.554 369.561Z" fill="#353535"/>
<path fill-rule="evenodd" clip-rule="evenodd" d="M371.222 198.747C371.191 199.259 371.159 199.772 371.126 200.281C371.158 199.768 371.19 199.257 371.222 198.747Z" fill="#353535"/>
<path fill-rule="evenodd" clip-rule="evenodd" d="M389.583 369.614C388.978 369.617 388.372 369.619 387.767 369.622C388.375 370.035 388.98 370.055 389.583 369.614Z" fill="#353535"/>
<path fill-rule="evenodd" clip-rule="evenodd" d="M54.3873 190.706C54.3823 190.185 54.3778 189.665 54.3733 189.146C54.3783 189.667 54.3828 190.186 54.3873 190.706Z" fill="#353535"/>
<path fill-rule="evenodd" clip-rule="evenodd" d="M332.294 181.605C331.715 181.68 331.136 181.756 330.557 181.831C331.136 181.756 331.715 181.68 332.294 181.605Z" fill="#353535"/>
<path fill-rule="evenodd" clip-rule="evenodd" d="M383.393 226.518C383.385 227.004 383.377 227.49 383.368 227.974C383.376 227.487 383.384 227.003 383.393 226.518Z" fill="#353535"/>
<path fill-rule="evenodd" clip-rule="evenodd" d="M50.4888 226.448C50.5205 225.953 50.5523 225.458 50.584 224.965C50.5523 225.461 50.5201 225.955 50.4888 226.448Z" fill="#353535"/>
<path fill-rule="evenodd" clip-rule="evenodd" d="M185.544 369.034C184.83 369.099 184.115 369.163 183.401 369.228C184.116 369.163 184.83 369.099 185.544 369.034Z" fill="#353535"/>
<path fill-rule="evenodd" clip-rule="evenodd" d="M187.931 350.495C188.318 350.501 188.704 350.507 189.087 350.515C188.699 350.51 188.315 350.502 187.931 350.495Z" fill="#353535"/>
<path fill-rule="evenodd" clip-rule="evenodd" d="M187.899 368.75C187.3 368.809 186.7 368.869 186.101 368.928C186.7 368.868 187.3 368.809 187.899 368.75Z" fill="#353535"/>
<path fill-rule="evenodd" clip-rule="evenodd" d="M295.746 328.301C294.966 332.717 301.813 337.036 302.356 330.759C302.554 328.463 301.023 326.849 299.308 325.446C296.874 323.454 295.514 325.361 295.746 328.301Z" fill="#353535"/>
<path fill-rule="evenodd" clip-rule="evenodd" d="M371.22 274.424C369.607 275.086 357.283 279.111 363.684 281.136C365.379 281.671 367.94 281.751 369.409 280.807C371.176 279.671 372.959 276.318 371.22 274.424Z" fill="#353535"/>
<path fill-rule="evenodd" clip-rule="evenodd" d="M368.187 214.622C364.004 214.136 360.15 221.022 365.307 220.798C369.061 220.635 374.109 214.622 368.187 214.622Z" fill="#353535"/>
<path fill-rule="evenodd" clip-rule="evenodd" d="M353.223 231.506C349.73 234.561 356.205 241.397 358.775 238.751C360.088 237.399 358.877 234.488 357.794 233.357C356.682 232.197 354.703 231.979 353.223 231.506Z" fill="#353535"/>
<path fill-rule="evenodd" clip-rule="evenodd" d="M342.825 310.693C344.887 311.021 353.955 313.991 352.064 308.597C351.342 306.539 349.331 307.15 347.492 307.244C344.527 307.396 342.825 307.254 342.825 310.693Z" fill="#353535"/>
<path fill-rule="evenodd" clip-rule="evenodd" d="M348.798 324.588C345.711 326.243 350.223 335.507 352.782 333.536C356.332 330.801 351.476 325.42 348.798 324.588Z" fill="#353535"/>
<path fill-rule="evenodd" clip-rule="evenodd" d="M335.334 317.142C333.833 316.527 326.757 323.349 329.451 325.247C330.831 326.22 333.447 324.552 334.28 323.547C335.84 321.661 335.981 319.335 335.334 317.142Z" fill="#353535"/>
<path fill-rule="evenodd" clip-rule="evenodd" d="M376.16 261.381C374.626 261.633 371.977 261.713 371.878 263.874C371.791 265.773 374.166 266.389 375.839 266.538C377.574 266.692 379.871 266.201 379.904 264.014C379.939 261.655 376.214 261.797 376.16 261.381Z" fill="#353535"/>
<path fill-rule="evenodd" clip-rule="evenodd" d="M338.327 355.41C336.693 356.404 329.072 359.983 332.339 362.569C333.561 363.537 337.267 361.538 338.101 360.523C339.097 359.31 340.07 356.469 338.327 355.41Z" fill="#353535"/>
<path fill-rule="evenodd" clip-rule="evenodd" d="M317.141 329.436C317.377 325.485 310.727 323.913 312.105 329.521C312.494 331.102 312.87 333.502 314.821 333.594C317.126 333.702 317.21 330.968 317.141 329.436Z" fill="#353535"/>
<path fill-rule="evenodd" clip-rule="evenodd" d="M337.685 260.73C337.639 263.727 343.369 266.37 343.414 261.62C343.453 257.374 337.472 256.132 337.685 260.73Z" fill="#353535"/>
<path fill-rule="evenodd" clip-rule="evenodd" d="M341.469 245.12C340.058 245.576 338.181 245.811 338.057 247.609C337.925 249.512 339.689 250.359 341.276 250.252C342.577 250.164 344.502 249.199 344.739 247.784C345.086 245.706 343.063 245.571 341.469 245.12Z" fill="#353535"/>
<path fill-rule="evenodd" clip-rule="evenodd" d="M367.723 299.994C367.747 297.521 362.801 294.549 361.891 297.419C361.599 298.337 363.93 302.454 364.705 302.763C366.757 303.579 367.043 301.677 367.723 299.994Z" fill="#353535"/>
<path fill-rule="evenodd" clip-rule="evenodd" d="M327.2 341.158C328.871 342.657 333.883 346.869 333.509 341.216C333.27 337.604 326.759 337.793 327.2 341.158Z" fill="#353535"/>
<path fill-rule="evenodd" clip-rule="evenodd" d="M245.532 357.315C244.984 354.938 237.142 359.062 239.759 362.064C240.637 363.072 242.934 362.16 243.817 361.563C245.565 360.38 245.603 359.289 245.532 357.315Z" fill="#353535"/>
<path fill-rule="evenodd" clip-rule="evenodd" d="M289.227 306.435C288.921 305.375 288.581 303.502 287.572 302.825C285.747 301.602 284.158 303.448 284.158 305.393C284.157 309.021 288.278 310.166 289.227 306.435Z" fill="#353535"/>
<path fill-rule="evenodd" clip-rule="evenodd" d="M308.663 348.859C306.627 349.327 302.093 354.288 304.723 356.312C307.253 358.26 310.619 350.341 308.663 348.859Z" fill="#353535"/>
<path fill-rule="evenodd" clip-rule="evenodd" d="M306.725 311.308C304.107 311.518 300.508 315.767 304.578 316.442C307.761 316.971 311.463 312.349 306.725 311.308Z" fill="#353535"/>
<path fill-rule="evenodd" clip-rule="evenodd" d="M283.023 330.862C282.367 328.645 275.874 331.02 276.239 333.461C276.432 334.758 279.087 335.063 280.483 334.72C282.537 334.215 283.07 332.864 283.023 330.862Z" fill="#353535"/>
<path fill-rule="evenodd" clip-rule="evenodd" d="M359.559 207.062C359.512 204.197 354.018 203.029 353.616 205.917C353.252 208.526 359.628 211.302 359.559 207.062Z" fill="#353535"/>
<path fill-rule="evenodd" clip-rule="evenodd" d="M284.839 360.389C284.442 358.948 284.272 357.214 282.476 357.024C280.419 356.806 280.48 358.387 280.721 360.024C281.379 364.48 283.892 364.702 284.839 360.389Z" fill="#353535"/>
<path fill-rule="evenodd" clip-rule="evenodd" d="M371.596 241.157C374.46 241.804 379.705 236.275 376.499 235.089C374.24 234.252 371.596 239.488 371.596 241.157Z" fill="#353535"/>
<path fill-rule="evenodd" clip-rule="evenodd" d="M335.065 284.101C336.523 284.789 336.859 285.206 337.979 284.077C338.954 283.094 338.911 280.355 338.074 279.332C334.868 275.416 334.943 282.516 335.065 284.101Z" fill="#353535"/>
<path fill-rule="evenodd" clip-rule="evenodd" d="M323.174 276.158C321.654 276.352 317.137 280.646 319.489 282.353C322.371 284.444 324.002 277.894 323.174 276.158Z" fill="#353535"/>
<path fill-rule="evenodd" clip-rule="evenodd" d="M290.284 277.289C291.389 281.553 294.148 278.684 293.992 275.457C293.74 270.288 290.882 274.79 290.284 277.289Z" fill="#353535"/>
<path fill-rule="evenodd" clip-rule="evenodd" d="M273.515 345.784C271.645 346.559 269.107 353.721 271.777 354.106C274.777 354.537 273.778 347.275 273.515 345.784Z" fill="#353535"/>
<path fill-rule="evenodd" clip-rule="evenodd" d="M296.86 341.76C294.721 341.036 293.937 345.559 295.18 346.399C297.916 348.247 297.339 342.827 296.86 341.76Z" fill="#353535"/>
<path fill-rule="evenodd" clip-rule="evenodd" d="M317.141 329.436C317.168 330.037 317.195 330.637 317.223 331.234C317.197 330.632 317.169 330.034 317.141 329.436Z" fill="#353535"/>
<path fill-rule="evenodd" clip-rule="evenodd" d="M245.532 357.315C245.555 357.931 245.577 358.546 245.6 359.159C245.579 358.542 245.556 357.928 245.532 357.315Z" fill="#353535"/>
<path fill-rule="evenodd" clip-rule="evenodd" d="M283.023 330.862C283.035 331.384 283.048 331.906 283.061 332.425C283.05 331.902 283.036 331.382 283.023 330.862Z" fill="#353535"/>
<path fill-rule="evenodd" clip-rule="evenodd" d="M46.4173 321.874C41.9824 321.731 37.035 320.058 32.6771 320.591C31.4773 320.737 28.7157 321.04 30.6378 322.824C31.5571 323.676 35.958 323.236 37.2901 323.518C45.4327 325.246 54.6759 326.361 63.0252 326.217C66.9336 326.15 70.871 325.836 74.7776 325.629C78.6815 325.422 79.0653 323.832 74.6725 323.326C70.1102 322.801 65.4288 322.996 60.8439 322.99C56.0239 322.984 51.2279 322.196 46.4173 321.874Z" fill="#353535"/>
<path fill-rule="evenodd" clip-rule="evenodd" d="M36.6812 311.165C37.108 312.383 37.4828 315.178 39.1184 315.362C41.4093 315.618 41.7885 311.676 41.7043 310.234C41.6019 308.494 40.977 305.603 38.8189 306.206C36.9961 306.715 36.8135 309.772 36.6812 311.165Z" fill="#353535"/>
<path fill-rule="evenodd" clip-rule="evenodd" d="M50.55 310.273C50.2152 308.969 50.0507 306.028 48.2102 305.928C46.1532 305.816 45.5655 308.88 45.5791 310.349C45.5927 311.742 46.107 314.375 47.7449 314.697C49.9656 315.133 50.164 311.763 50.55 310.273Z" fill="#353535"/>
<path fill-rule="evenodd" clip-rule="evenodd" d="M73.6472 312.612C74.3137 314.18 74.7545 316.339 76.817 315.27C78.4119 314.444 78.6344 311.11 78.3336 309.584C78.0218 308.002 77.3617 306.189 75.5488 306.9C73.4582 307.72 73.6694 310.886 73.6472 312.612Z" fill="#353535"/>
<path fill-rule="evenodd" clip-rule="evenodd" d="M56.1562 311.165C58.1222 317.138 61.708 313.097 60.3464 308.637C58.9228 303.976 56.337 308.503 56.1562 311.165Z" fill="#353535"/>
<path fill-rule="evenodd" clip-rule="evenodd" d="M65.7352 311.46C66.2812 312.512 66.8621 314.781 68.3337 314.542C70.138 314.249 70.1959 310.769 69.9979 309.473C69.8253 308.338 69.3169 306.448 67.8068 306.472C65.6247 306.508 65.771 310.099 65.7352 311.46Z" fill="#353535"/>
<path fill-rule="evenodd" clip-rule="evenodd" d="M26.5179 312.607C27.9817 315.898 29.9953 313.063 29.3508 310.725C28.395 307.259 26.6008 310.33 26.5179 312.607Z" fill="#353535"/>
<path fill-rule="evenodd" clip-rule="evenodd" d="M62.3604 322.994C63.9585 322.987 65.5575 322.982 67.1555 322.976C65.5561 322.674 63.9567 322.557 62.3604 322.994Z" fill="#353535"/>
<path fill-rule="evenodd" clip-rule="evenodd" d="M30.5969 320.576C31.9837 320.585 33.3701 320.594 34.756 320.603C33.3719 320.188 31.9855 320.179 30.5969 320.576Z" fill="#353535"/>
<path fill-rule="evenodd" clip-rule="evenodd" d="M46.4166 321.874C47.5265 321.948 48.6359 322.023 49.7454 322.097C48.6355 322.023 47.5261 321.948 46.4166 321.874Z" fill="#353535"/>
<path fill-rule="evenodd" clip-rule="evenodd" d="M73.6472 312.612C73.6572 311.814 73.6681 311.016 73.6776 310.219C73.2674 311.013 73.296 311.81 73.6472 312.612Z" fill="#353535"/>
<path fill-rule="evenodd" clip-rule="evenodd" d="M64.9501 326.2C64.3065 326.206 63.663 326.211 63.0248 326.217C63.6702 326.211 64.3101 326.206 64.9501 326.2Z" fill="#353535"/>
<path fill-rule="evenodd" clip-rule="evenodd" d="M75.7544 325.629C75.1027 325.629 74.4505 325.628 73.8034 325.629C74.4578 325.629 75.1059 325.629 75.7544 325.629Z" fill="#353535"/>
<path fill-rule="evenodd" clip-rule="evenodd" d="M70.4109 323.063C71.3173 323.138 72.2237 323.212 73.1296 323.286C72.2232 323.212 71.3173 323.138 70.4109 323.063Z" fill="#353535"/>
<path fill-rule="evenodd" clip-rule="evenodd" d="M58.1591 322.984C59.0541 322.986 59.9488 322.987 60.8439 322.989C59.9492 322.612 59.0546 322.601 58.1591 322.984Z" fill="#353535"/>
<path fill-rule="evenodd" clip-rule="evenodd" d="M65.7352 311.46C65.7574 310.628 65.7791 309.796 65.7999 308.965C65.7777 309.798 65.7565 310.629 65.7352 311.46Z" fill="#353535"/>
<path fill-rule="evenodd" clip-rule="evenodd" d="M78.3331 309.584C78.338 310.395 78.343 311.207 78.3494 312.015C78.3444 311.203 78.339 310.394 78.3331 309.584Z" fill="#353535"/>
<path fill-rule="evenodd" clip-rule="evenodd" d="M41.3326 321.572C42.1239 321.644 42.9148 321.715 43.7052 321.786C42.9139 321.715 42.123 321.644 41.3326 321.572Z" fill="#353535"/>
<path fill-rule="evenodd" clip-rule="evenodd" d="M26.5186 312.607C26.5445 311.898 26.5698 311.189 26.5952 310.481C26.5694 311.191 26.5445 311.899 26.5186 312.607Z" fill="#353535"/>
<path fill-rule="evenodd" clip-rule="evenodd" d="M60.1698 326.224C59.6192 326.213 59.0685 326.203 58.5233 326.193C59.0758 326.204 59.6228 326.214 60.1698 326.224Z" fill="#353535"/>
<path fill-rule="evenodd" clip-rule="evenodd" d="M36.6812 311.165C36.7296 310.655 36.7781 310.145 36.8262 309.637C36.7777 310.148 36.7292 310.656 36.6812 311.165Z" fill="#353535"/>
<path fill-rule="evenodd" clip-rule="evenodd" d="M56.1562 311.165C56.1915 310.641 56.2274 310.118 56.2627 309.596C56.2269 310.12 56.1915 310.642 56.1562 311.165Z" fill="#353535"/>
<path fill-rule="evenodd" clip-rule="evenodd" d="M340.083 157.427C342.249 156.858 342.655 153.808 342.307 151.934C341.912 151.032 341.517 150.129 341.123 149.226C341.277 148.893 341.431 148.559 341.585 148.225C341.387 146.366 341.893 145.558 339.762 146.311C335.802 147.711 335.169 157.284 340.083 157.427Z" fill="#353535"/>
<path fill-rule="evenodd" clip-rule="evenodd" d="M308.03 151.53C306.246 151.389 303.006 153.472 304.782 155.486C305.882 156.734 309.507 156.144 310.986 156.404C312.948 156.75 314.993 157.223 313.932 154.278C313.099 151.966 310.123 151.47 308.03 151.53Z" fill="#353535"/>
<path fill-rule="evenodd" clip-rule="evenodd" d="M309.907 165.381C311.719 163.924 310.911 157.291 308.152 158.484C305.315 159.713 308.395 164.424 309.907 165.381Z" fill="#353535"/>
<path fill-rule="evenodd" clip-rule="evenodd" d="M342.307 151.934C342.307 152.632 342.307 153.331 342.308 154.026C342.686 153.326 342.675 152.63 342.307 151.934Z" fill="#353535"/>
<path fill-rule="evenodd" clip-rule="evenodd" d="M340.083 157.427C339.714 157.417 339.344 157.406 338.979 157.396C339.351 157.408 339.717 157.418 340.083 157.427Z" fill="#353535"/>
<path fill-rule="evenodd" clip-rule="evenodd" d="M116.351 348.466C116.521 351.483 119.754 349.252 119.525 347.234C119.109 343.571 117.042 347.191 116.351 348.466Z" fill="#353535"/>
</svg>
