<svg width="394" height="394" viewBox="0 0 394 394" fill="none" xmlns="http://www.w3.org/2000/svg">
<path d="M139.288 100.064V145.795L181.837 106.17L139.288 100.064Z" fill="#F3F3F3"/>
<path d="M309.29 120.275C309.29 123.524 306.464 126.155 302.976 126.155H128.857C125.37 126.155 122.56 123.524 122.56 120.275V6.75219C122.56 3.50395 125.386 0.887451 128.857 0.887451H302.992C306.48 0.887451 309.306 3.51898 309.306 6.75219V120.275H309.29Z" fill="white"/>
<path d="M157.971 20.0461C157.971 24.9786 153.676 28.9936 148.363 28.9936C143.067 28.9936 138.755 24.9786 138.755 20.0461C138.755 15.0985 143.05 11.098 148.363 11.098C153.676 11.098 157.971 15.0985 157.971 20.0461Z" fill="#CDD5D7"/>
<path d="M265.466 22.5573H166.384V26.4673H265.466V22.5573Z" fill="#CDD5D7"/>
<path d="M222.222 13.6096H166.384V17.5193H222.222V13.6096Z" fill="#879BA6"/>
<path d="M294.273 37.8058H139.288V111.553H294.273V37.8058Z" fill="#4E99FF"/>
<path d="M224.532 74.6794L214.795 79.9127L205.074 85.1463V74.6794V64.228L214.795 69.4461L224.532 74.6794Z" fill="white"/>
<path d="M279.727 337.222L267.114 343.218L276.929 361.126L289.542 355.131L279.727 337.222Z" fill="#565685"/>
<path d="M248.737 267.243L283.971 338.9L268.34 345.382C268.34 345.382 223.482 276.432 227.454 270.777C231.427 265.138 246.686 263.514 248.737 267.243Z" fill="#163F59"/>
<path d="M291.804 360.57L282.6 364.946L281.163 362.345L278.579 366.856L255.357 377.909C255.357 377.909 253.807 374.165 269.131 366.179C273.071 364.134 273.089 357.713 273.089 357.713C273.089 357.713 274.171 355.081 279.322 357.578C280.662 358.224 288.025 352.269 288.025 352.269C288.025 352.269 291.675 357.096 291.804 360.57Z" fill="#081832"/>
<path d="M16.5033 304.433C14.0326 304.433 10.1248 303.906 6.70154 301.139C1.77654 297.154 -0.354824 290.056 0.355668 280.056C0.840094 273.304 3.69812 266.461 6.71771 259.228C11.8042 247.062 17.5529 233.257 14.5494 215.016L20.1526 214.219C23.3983 233.858 17.0683 248.987 11.998 261.153C9.01069 268.296 6.44329 274.477 6.00731 280.417C5.426 288.522 6.92764 294.297 10.3671 297.124C13.6127 299.801 17.682 299.109 17.8597 299.079L18.99 304.252C18.877 304.252 17.9404 304.433 16.5033 304.433Z" fill="#49579E"/>
<path d="M59.924 346.284L65.4463 354.119L19.1192 367.939C19.1192 367.939 16.0348 365.187 27.3866 359.638C40.6275 353.202 59.924 346.284 59.924 346.284Z" fill="#A8A1B1"/>
<path d="M68.1426 346.284L62.6363 354.119L108.964 367.939C108.964 367.939 112.048 365.187 100.696 359.638C87.4552 353.202 68.1426 346.284 68.1426 346.284Z" fill="#A8A1B1"/>
<path d="M68.8857 322.975H59.1972V355.066H68.8857V322.975Z" fill="#A8A1B1"/>
<path d="M59.2936 347.923L64.0087 355.397L24.3507 368.585C24.3507 368.585 21.7022 365.954 31.4391 360.66C42.7747 354.525 59.2936 347.923 59.2936 347.923Z" fill="#C6C7C9"/>
<path d="M68.7725 347.923L64.0571 355.397L103.716 368.585C103.716 368.585 106.364 365.954 96.6432 360.66C85.2915 354.525 68.7725 347.923 68.7725 347.923Z" fill="#C6C7C9"/>
<path d="M28.8558 371.563C28.8558 373.292 27.3539 374.706 25.497 374.706C23.64 374.706 22.1383 373.292 22.1383 371.563C22.1383 369.834 23.64 368.435 25.497 368.435C27.3539 368.435 28.8558 369.834 28.8558 371.563Z" fill="#49579E"/>
<path d="M105.686 371.563C105.686 373.292 104.184 374.706 102.327 374.706C100.47 374.706 98.9683 373.292 98.9683 371.563C98.9683 369.834 100.47 368.435 102.327 368.435C104.184 368.42 105.686 369.834 105.686 371.563Z" fill="#49579E"/>
<path d="M20.7175 371.563C20.7175 373.292 19.2156 374.706 17.3586 374.706C15.5017 374.706 13.9998 373.292 13.9998 371.563C13.9998 369.834 15.5017 368.435 17.3586 368.435C19.2156 368.42 20.7175 369.834 20.7175 371.563Z" fill="#49579E"/>
<path d="M113.824 371.563C113.824 373.292 112.322 374.706 110.465 374.706C108.608 374.706 107.107 373.292 107.107 371.563C107.107 369.834 108.608 368.435 110.465 368.435C112.322 368.42 113.824 369.834 113.824 371.563Z" fill="#49579E"/>
<path d="M67.4649 311.215H60.3758V322.749H67.4649V311.215Z" fill="#49579E"/>
<path d="M72.7616 305.124C72.7616 308.673 69.6613 311.546 65.8505 311.546H61.9591C58.1483 311.546 55.0641 308.673 55.0641 305.124C55.0641 301.575 58.1483 298.688 61.9591 298.688H65.8505C69.6774 298.688 72.7616 301.575 72.7616 305.124Z" fill="#49579E"/>
<path d="M116.537 299.245C116.715 298.478 116.796 293.741 116.796 292.929C116.796 287.74 113.195 283.53 108.754 283.53H19.0707C14.6301 283.53 11.0131 287.74 11.0131 292.929C11.0131 293.741 11.1098 298.493 11.2713 299.245H116.537Z" fill="#E45471"/>
<path d="M10.19 301.786C10.19 303.38 11.1909 304.658 12.4181 304.658H115.391C116.634 304.658 117.62 303.38 117.62 301.786C117.62 300.192 116.618 298.914 115.391 298.914H12.4181C11.1909 298.914 10.19 300.207 10.19 301.786Z" fill="#49579E"/>
<path d="M15.2113 251.017C17.4235 251.167 31.4719 251.393 33.9102 251.423C49.2988 251.604 62.5559 248.912 63.2826 245.378C66.3183 230.716 66.4636 215.662 63.6862 201C63.0403 197.466 49.5733 194.789 33.8617 194.955C31.3912 194.985 17.036 195.225 14.7914 195.376C19.6034 213.662 19.7488 232.716 15.2113 251.017Z" fill="#E45471"/>
<path d="M13.0959 195.376C11.3681 195.391 10.1729 196.158 10.4151 197.075C14.7104 214.279 14.8719 232.114 10.8996 249.333C10.6897 250.265 11.8683 251.017 13.5638 251.032C15.2431 251.047 16.8098 250.325 17.0197 249.393C21.0404 232.144 20.9112 214.264 16.6483 197.015C16.4061 196.083 14.8237 195.346 13.0959 195.376Z" fill="#49579E"/>
<path d="M12.417 250.987C12.8691 251.122 15.921 251.228 16.4539 251.243C19.7964 251.288 23.2521 248.521 23.9303 245.047C26.7239 230.595 26.643 215.783 23.7041 201.346C23.0098 197.887 19.4734 195.12 16.0502 195.165C15.5012 195.165 12.4007 195.286 11.9325 195.421C16.7766 213.677 16.9221 232.716 12.417 250.987Z" fill="#BD465E"/>
<path d="M377.045 304.433C379.516 304.433 383.423 303.906 386.847 301.139C391.772 297.154 393.903 290.056 393.193 280.056C392.708 273.304 389.866 266.461 386.831 259.228C381.744 247.062 375.979 233.257 378.999 215.016L373.412 214.219C370.166 233.858 376.48 248.987 381.55 261.153C384.538 268.296 387.121 274.477 387.541 280.417C388.122 288.522 386.621 294.297 383.197 297.124C379.952 299.801 375.882 299.109 375.705 299.079L374.575 304.252C374.655 304.252 375.608 304.433 377.045 304.433Z" fill="#49579E"/>
<path d="M337.857 304.433C340.327 304.433 344.235 303.906 347.658 301.139C352.583 297.154 354.715 290.056 353.988 280.056C353.504 273.304 350.662 266.461 347.626 259.228C342.556 247.062 336.775 233.257 339.794 215.016L334.191 214.219C330.946 233.858 337.259 248.987 342.346 261.153C345.333 268.296 347.917 274.477 348.336 280.417C348.918 288.522 347.416 294.297 343.993 297.124C340.747 299.801 336.676 299.109 336.499 299.079L335.37 304.252C335.483 304.252 336.42 304.433 337.857 304.433Z" fill="#49579E"/>
<path d="M333.626 346.284L328.102 354.119L374.429 367.939C374.429 367.939 377.529 365.187 366.162 359.638C352.921 353.202 333.626 346.284 333.626 346.284Z" fill="#A8A1B1"/>
<path d="M325.389 346.284L330.912 354.119L284.584 367.939C284.584 367.939 281.5 365.187 292.852 359.638C306.093 353.202 325.389 346.284 325.389 346.284Z" fill="#A8A1B1"/>
<path d="M334.336 322.975H324.664V355.066H334.336V322.975Z" fill="#A8A1B1"/>
<path d="M334.238 347.923L329.523 355.397L369.181 368.585C369.181 368.585 371.829 365.954 362.092 360.66C350.757 354.525 334.238 347.923 334.238 347.923Z" fill="#C6C7C9"/>
<path d="M324.775 347.923L329.491 355.397L289.832 368.585C289.832 368.585 287.184 365.954 296.905 360.66C308.257 354.525 324.775 347.923 324.775 347.923Z" fill="#C6C7C9"/>
<path d="M364.676 371.563C364.676 373.292 366.178 374.706 368.035 374.706C369.892 374.706 371.393 373.292 371.393 371.563C371.393 369.834 369.892 368.435 368.035 368.435C366.194 368.42 364.676 369.834 364.676 371.563Z" fill="#49579E"/>
<path d="M287.846 371.563C287.846 373.292 289.348 374.706 291.205 374.706C293.062 374.706 294.58 373.292 294.58 371.563C294.58 369.834 293.062 368.435 291.205 368.435C289.348 368.435 287.846 369.834 287.846 371.563Z" fill="#49579E"/>
<path d="M372.831 371.563C372.831 373.292 374.332 374.706 376.189 374.706C378.046 374.706 379.548 373.292 379.548 371.563C379.548 369.834 378.046 368.435 376.189 368.435C374.332 368.42 372.831 369.834 372.831 371.563Z" fill="#49579E"/>
<path d="M279.708 371.563C279.708 373.292 281.209 374.706 283.066 374.706C284.923 374.706 286.425 373.292 286.425 371.563C286.425 369.834 284.923 368.435 283.066 368.435C281.209 368.42 279.708 369.834 279.708 371.563Z" fill="#49579E"/>
<path d="M333.174 311.215H326.083V322.749H333.174V311.215Z" fill="#49579E"/>
<path d="M320.787 305.124C320.787 308.673 323.871 311.546 327.682 311.546H331.574C335.384 311.546 338.485 308.673 338.485 305.124C338.485 301.575 335.401 298.688 331.574 298.688H327.682C323.871 298.688 320.787 301.575 320.787 305.124Z" fill="#49579E"/>
<path d="M277.011 299.245C276.85 298.478 276.753 293.741 276.753 292.929C276.753 287.74 280.354 283.53 284.794 283.53H374.478C378.918 283.53 382.519 287.74 382.519 292.929C382.519 293.741 382.422 298.493 382.245 299.245H277.011Z" fill="#E45471"/>
<path d="M383.343 301.786C383.343 303.38 382.341 304.658 381.114 304.658H278.125C276.898 304.658 275.897 303.38 275.897 301.786C275.897 300.192 276.898 298.914 278.125 298.914H381.114C382.358 298.914 383.343 300.207 383.343 301.786Z" fill="#49579E"/>
<path d="M378.337 251.017C376.125 251.167 362.06 251.393 359.638 251.423C344.249 251.604 330.992 248.912 330.266 245.378C327.23 230.716 327.101 215.662 329.862 201C330.524 197.466 343.975 194.789 359.686 194.955C362.157 194.985 376.512 195.225 378.757 195.376C373.929 213.662 373.783 232.716 378.337 251.017Z" fill="#E45471"/>
<path d="M380.436 195.376C382.164 195.391 383.359 196.158 383.133 197.075C378.837 214.279 378.692 232.114 382.648 249.333C382.858 250.265 381.679 251.017 379.984 251.032C378.288 251.047 376.738 250.325 376.528 249.393C372.508 232.144 372.637 214.264 376.9 197.015C377.126 196.083 378.724 195.346 380.436 195.376Z" fill="#49579E"/>
<path d="M380.066 250.656C379.614 250.791 376.562 250.897 376.029 250.912C372.671 250.942 369.231 248.19 368.553 244.716C365.76 230.264 365.824 215.452 368.763 201C369.457 197.526 373.01 194.789 376.417 194.819C376.95 194.834 380.066 194.94 380.535 195.075C375.723 213.346 375.561 232.385 380.066 250.656Z" fill="#BD465E"/>
<path d="M212.922 227.362H185.261V369.142H212.922V227.362Z" fill="#A8A1B1"/>
<path d="M185.261 278.131V227.347H212.922V260.04L185.261 278.131Z" fill="#948D9C"/>
<path d="M289.735 222.58H108.463V230.821H289.735V222.58Z" fill="#A8A1B1"/>
<path d="M250.077 361.066H148.105V369.307H250.077V361.066Z" fill="#948D9C"/>
<path d="M352.987 209.557C352.987 209.557 362.141 235.843 368.099 243.844C372.346 249.558 376.125 261.423 375.656 266.702C375.188 271.98 374.655 289.079 364.789 289.996C350.628 291.319 323.726 289.56 323.726 289.56C323.726 289.56 308.144 252.19 308.628 247.348C309.096 242.52 312.423 236.731 313.117 234.355C313.811 231.964 309.096 222.73 309.096 222.73L352.987 209.557Z" fill="#163F59"/>
<path d="M322.305 262.747L246.557 299.5C246.557 299.5 220.333 274.612 231.184 268.025C252.192 255.258 313.101 234.355 313.101 234.355L322.305 262.747Z" fill="#163F59"/>
<path d="M244.411 364.766L243.311 383.759L227.343 383.278L231.524 361.713L244.411 364.766Z" fill="#565685"/>
<path d="M363.854 290.011L263.739 289.695C263.739 289.695 245.363 282.101 254.245 272.131C259.929 265.74 329.202 253.303 349.224 253.092C389.803 252.641 363.854 290.011 363.854 290.011Z" fill="#194866"/>
<path d="M278.868 287.815L245.929 372.48L228.488 365.548C228.488 365.548 243.117 278.492 254.308 275.95C265.514 273.394 279.643 284.823 278.868 287.815Z" fill="#194866"/>
<path d="M243.2 386L232.347 386.315L232.252 383.248L227.632 386.451L200.263 387.248C200.263 387.248 200.603 383.052 218.978 381.864C223.693 381.563 226.792 375.488 226.792 375.488C226.792 375.488 229.085 373.443 232.783 377.954C233.752 379.127 243.603 376.541 243.603 376.541C243.603 376.541 244.734 382.646 243.2 386Z" fill="#081832"/>
<path d="M324.583 255.423C329.363 270.356 332.932 281.214 332.932 281.214L369.926 278.206C373.962 267.303 374.592 252.807 349.208 253.077C343.863 253.137 334.902 254.025 324.583 255.423Z" fill="#163F59"/>
<path d="M236.158 155.705L239.694 144.833L236.513 138.562L228.019 141.193L222.352 144.156L220.931 148.442C220.931 148.442 224.112 157.029 229.069 158.999C234.026 160.969 236.158 155.705 236.158 155.705Z" fill="#E9D6B8"/>
<path d="M297.407 106.245C297.407 106.245 297.052 118.11 306.611 126.351C316.17 134.592 280.759 138.216 280.759 138.216C280.759 138.216 287.008 125.464 267.889 124.486C257.716 123.96 293.16 102.936 297.407 106.245Z" fill="#E2C59C"/>
<path d="M264.837 145.149C264.837 145.149 251.031 207.467 237.936 216.7C225.163 225.708 229.797 210.775 231.218 199.226C232.639 187.676 241.843 153.058 244.669 149.103C247.479 145.148 260.574 139.208 264.837 145.149Z" fill="#163F59"/>
<path d="M326.196 129.539C326.196 129.539 310.13 130.381 292.561 133.825C276.107 137.058 259.912 142.366 257.636 144.487C252.921 148.893 260.946 180.097 280.291 197.692C299.652 215.286 308.145 232.866 308.145 232.866C308.145 232.866 362.901 237.708 366.212 235.949C361.077 238.671 359.075 206.835 357.718 204.73C353.471 198.143 337.887 154.171 340.729 145.374C343.539 136.576 335.643 127.343 326.196 129.539Z" fill="#D1DBEA"/>
<path d="M291.158 209.557C291.158 209.557 279.354 188.894 278.418 179.225C277.465 169.555 277.949 137.013 277.949 137.013L253.405 143.599C253.405 143.599 257.652 179.21 263.32 186.684C268.955 194.173 291.158 209.557 291.158 209.557Z" fill="#194866"/>
<path d="M280.291 189.767C280.291 189.767 278.87 181.842 278.401 169.104C277.933 156.352 277.933 137.013 277.933 137.013L264.24 141.404L263.287 155.916L269.423 157.239L265.645 167.345C265.661 167.345 272.734 180.097 280.291 189.767Z" fill="#163F59"/>
<path d="M315.767 233.858C313.894 234.655 312.037 235.453 310.164 236.25C296.357 203.211 288.976 167.901 288.444 132.486C290.187 132.546 291.948 132.606 293.691 132.667C294.499 167.285 302.009 201.737 315.767 233.858Z" fill="#B0BFDE"/>
<path d="M307.454 231.276L307.217 236.55L364.037 238.768L364.274 233.495L307.454 231.276Z" fill="#E45471"/>
<path d="M317.667 230.116L317.27 238.904L319.416 238.988L319.813 230.2L317.667 230.116Z" fill="#163F59"/>
<path d="M337.614 239.904L335.483 239.829L335.87 231.031L338.018 231.122L337.614 239.904Z" fill="#163F59"/>
<path d="M361.771 240.851L359.64 240.776L360.027 231.979L362.175 232.069L361.771 240.851Z" fill="#163F59"/>
<path d="M239.694 211.752C239.694 211.752 236.868 220.655 229.779 220.986C222.707 221.317 218.799 208.128 219.865 190.323C220.931 172.518 224.112 157.675 224.112 157.675L235.092 156.352C235.092 156.352 243.23 207.797 239.694 211.752Z" fill="#194866"/>
<path d="M291.738 97.3421C287.846 90.0937 270.116 83.6575 267.226 87.7479C265.982 89.5073 265.11 91.2969 264.755 92.9811C264.4 95.0113 264.03 97.0114 263.675 98.9814C263.578 99.4175 263.544 99.8685 263.56 100.335C263.56 100.365 263.544 100.395 263.544 100.425V123.328C263.544 124.035 264.159 124.606 264.918 124.606H281.082C281.776 124.606 290.72 117.433 292.157 115.734C293.918 113.899 295.823 112.681 296.679 111.147C297.761 109.207 295.225 103.839 291.738 97.3421Z" fill="#E9D6B8"/>
<path d="M270.392 94.2892L276.221 103.703L282.067 113.117H270.392H258.718L264.547 103.703L270.392 94.2892Z" fill="#E9D6B8"/>
<path d="M298.116 111.824L294.402 91.5824C294.402 91.5824 293.433 88.0937 281.92 86.4094C270.407 84.7252 266.483 86.5449 266.483 86.5449L261.509 89.3718L264.174 94.44L277.399 93.4023L275.009 101.402L277.786 110.17L280.967 110.335L281.113 110.546C281.113 110.546 280.273 105.508 283.325 103.177C286.377 100.861 289.154 103.823 287.911 107.057C286.667 110.275 287.071 111.313 287.071 111.313L291.512 114.576L298.116 111.824Z" fill="#194866"/>
<path d="M289.495 130.968L286.183 136.126C286.183 136.126 287.475 139.644 288.185 139.87C288.896 140.096 293.385 139.539 293.385 139.539C293.385 139.539 294.339 136.577 294.452 135.028C294.565 133.494 289.495 130.968 289.495 130.968Z" fill="#E45471"/>
<path d="M289.735 129.975V135.253L285.004 142.727L277.933 137.013L280.291 129.539L289.735 129.975Z" fill="#B0BFDE"/>
<path d="M307.661 125.148L311.455 130.862L299.652 140.532L289.737 135.253V129.975L307.661 125.148Z" fill="#B0BFDE"/>
<path d="M322.773 125.584L308.854 126.682C308.854 126.682 294.693 147.78 310.033 199C319.77 231.468 333.641 273.74 333.641 273.74L382.261 269.785C382.261 269.785 364.515 241.182 361.511 213.076C359.121 190.759 360.478 167.435 357.717 160.322C354.277 151.389 359.864 142.442 356.069 137.464C345.832 124.05 326.213 125.268 322.773 125.584Z" fill="#194866"/>
<path d="M292.933 137.268L289.687 137.72C287.83 155.269 286.732 184.909 294.806 215.196C295.807 218.941 299.295 221.241 299.295 221.241L302.605 215.211C302.605 215.226 295.613 173.766 292.933 137.268Z" fill="#E45471"/>
<path d="M267.532 220.249C267.532 220.249 265.191 220.881 261.413 221.422C258.99 221.768 255.278 222.52 255.278 222.52L245.83 221.858L241.341 220.76L243.942 215.046L249.835 211.091C249.835 211.091 255.939 206.985 257.376 207.572C258.829 208.173 266.581 209.993 266.581 209.993L267.532 220.249Z" fill="#E2C59C"/>
<path d="M337.371 225.227C337.371 225.227 334.853 233.167 318.189 230.37C301.509 227.588 264.983 220.505 264.983 220.505L264.222 205.587C264.222 205.587 305.964 209.406 313.553 210.354C321.126 211.286 337.597 209.061 337.371 225.227Z" fill="#163F59"/>
<path d="M322.515 222.64L336.742 227.678C336.742 227.678 356.215 183.601 359.59 168.097C361.414 159.69 361.301 139.599 354.778 134.095C345.202 126.005 332.462 126.005 332.462 126.005C332.462 126.005 325.324 150.156 324.566 158.517C323.79 166.879 322.515 222.64 322.515 222.64Z" fill="#163F59"/>
<path d="M308.854 126.682L315.927 126.02L315.46 141.629L309.792 149.555L317.105 156.141C317.105 156.141 311.197 190.654 313.797 204.73C316.397 218.79 302.524 180.293 303.412 152.186C303.897 137.238 308.854 126.682 308.854 126.682Z" fill="#163F59"/>
<path d="M99.7114 178.879L94.1407 231.453V234.611L77.4278 233.708C77.4278 233.708 82.2719 191.737 82.9985 189.707C83.7252 187.676 85.4208 170.082 85.1786 166.924C84.9364 163.766 91.1209 142.562 97.6445 151.359C106.994 163.991 99.7114 178.879 99.7114 178.879Z" fill="#B0BFDE"/>
<path d="M80.9483 136.486C78.3162 147.434 66.4479 154.277 54.4503 151.765C42.4527 149.269 34.8472 138.366 37.4954 127.418C40.1274 116.471 51.9957 109.628 63.9933 112.14C75.991 114.636 83.5803 125.539 80.9483 136.486Z" fill="#2B2A26"/>
<path d="M101.455 125.238C99.437 133.644 90.4748 138.922 81.4484 137.043L79.091 128.952C70.0645 127.072 64.3966 118.741 66.415 110.32L67.7877 104.606C69.8061 96.1992 78.7682 90.9207 87.7947 92.8004L91.8797 93.6577C100.906 95.5375 106.59 103.883 104.556 112.275L101.455 125.238Z" fill="#2B2A26"/>
<path d="M100.309 101.508C99.9539 102.906 99.4692 104.305 98.8879 105.703C94.8833 115.132 86.7289 121.223 79.5433 120.681C78.2676 125.057 76.346 128.847 74.3922 131.99C72.1638 135.569 66.3346 138.637 66.3346 138.637C63.5087 145.208 84.5006 159.781 85.7116 159.209C88.2791 157.991 90.9594 149.63 86.3251 144.727C84.1613 142.427 81.9491 139.72 81.9006 138.171C81.7392 132.742 83.5963 131.584 86.406 129.103C91.331 125.644 96.9665 126.892 96.9665 126.892C97.5155 127.012 98.0482 126.892 98.468 126.621C99.0493 125.689 99.4855 124.651 99.7438 123.538L102.763 110.997C103.603 107.493 102.586 104.049 100.309 101.508Z" fill="#E9D6B8"/>
<path d="M70.9846 241.468C70.9846 241.468 78.2348 247.573 80.2694 248.115C82.9983 248.837 90.636 245.769 90.636 245.769C90.636 245.769 88.521 214.083 89.3122 201.542C90.1034 188.985 93.2682 185.36 92.8968 181.481C92.3155 175.285 91.6534 173.871 90.0548 169.149C88.4562 164.427 86.0662 156.638 84.5806 155.75C82.1908 154.322 79.6235 152.637 77.9603 150.201C77.056 148.878 70.9846 241.468 70.9846 241.468Z" fill="#E45471"/>
<path d="M86.9871 140.862C86.9871 140.862 97.4667 149.224 97.3375 152.246C97.2083 155.269 99.6305 171.691 98.5647 185.21C97.499 198.744 95.9973 202.188 96.4817 211.978C96.9661 221.753 99.582 223.753 99.7435 235.798C99.8727 245.227 99.017 253.634 99.017 253.634C99.017 253.634 94.544 255.168 90.7978 251.949C87.0354 248.716 85.4529 216.008 86.0181 207.888C86.5833 199.767 89.8288 178.307 89.0375 172.743C88.2463 167.179 84.7909 150.006 83.5798 148.336C80.5441 144.111 86.2605 141.359 86.9871 140.862Z" fill="#D1DBEA"/>
<path d="M86.955 140.005C86.955 140.005 86.5027 140.817 85.8729 141.299C84.678 142.201 83.2411 143.915 83.2411 143.915C83.2411 143.915 85.0979 142.908 85.986 144.412C87.0517 146.261 88.0044 150.547 88.0044 150.547C88.0044 150.547 91.1049 144.757 90.1037 143.073C88.2468 140.035 86.955 140.005 86.955 140.005Z" fill="#B0BFDE"/>
<path d="M74.6019 164.066C71.8569 175.495 59.4557 182.638 46.9252 180.037C34.3947 177.42 26.4663 166.036 29.2114 154.592C31.9564 143.163 44.3576 136.02 56.8881 138.637C69.4186 141.253 77.3632 152.637 74.6019 164.066Z" fill="#2B2A26"/>
<path d="M122.464 349.848L118.12 380.917L136.916 388.947L147.347 390.992L128.826 378.12L134.897 350.089L122.464 349.848Z" fill="#E9D6B8"/>
<path d="M116.892 385.594L120.978 386.586L123.723 384.285L138.74 391.067L152.062 393.91C152.062 393.91 152.223 392.932 151.771 392.406C150.092 390.451 140.775 386.06 140.775 386.06C140.775 386.06 140.629 388.947 139.305 389.022C137.981 389.098 126.468 383.669 123.804 382.15C119.218 379.548 118.362 377.924 118.023 378.12C117.07 378.676 116.892 385.594 116.892 385.594Z" fill="#161711"/>
<path d="M167.838 306.643L182.774 333.11L203.427 332.178L213.714 329.516L190.896 326.042L178.43 303.425L167.838 306.643Z" fill="#E9D6B8"/>
<path d="M184.001 337.802L188.103 336.93L189.395 333.727L207.916 333.486L218.977 331.156C218.977 331.156 217.637 329.802 216.813 329.501C214.359 328.584 205.607 328.103 205.607 328.103C205.607 328.103 206.527 330.359 205.397 331.005C204.25 331.652 191.526 332.028 188.41 331.832C183.049 331.486 181.498 330.419 181.288 330.75C180.739 331.577 184.001 337.802 184.001 337.802Z" fill="#161711"/>
<path d="M58.7129 227.482L69.8546 231.994L74.6988 245.528L146.378 234.535C146.378 234.535 153.676 232.43 158.327 243.182C164.947 258.476 181.789 305.997 181.789 305.997L171.132 316.373L137.707 262.672C137.707 262.672 69.1927 292.598 46.6023 286.131C37.931 283.65 31.3102 269.394 32.5536 254.987C33.5224 243.709 35.9447 233.332 35.9447 233.332L58.7129 227.482Z" fill="#194866"/>
<path d="M68.4172 285.8L123.238 282.131L118.523 360.916L134.686 361.397L146.636 269.138C146.636 269.138 143.423 255.408 132.943 257.484C122.463 259.529 97.1276 277.605 68.4172 285.8Z" fill="#163F59"/>
<path d="M75.3281 247.483C75.3281 247.483 76.6525 215.437 77.6537 200.233C78.671 185.03 78.4447 155.69 78.6546 152.036C78.8646 148.382 77.7987 143.224 77.7987 143.224C77.7987 143.224 72.8414 135.344 67.3189 136.035C62.4585 136.637 43.6631 147.825 36.429 150.998C31.4394 153.194 42.6618 201.963 42.4357 204.67C41.596 214.399 37.0746 225.843 34.1842 233.708C31.8751 239.979 30.4706 249.167 30.4706 249.167C30.4706 249.167 58.3893 244.175 75.3281 247.483Z" fill="#D1DBEA"/>
<path d="M69.0469 133.539L72.9706 137.148L78.5095 142.682L75.6995 148.878L65.9305 136.125L69.0469 133.539Z" fill="#B0BFDE"/>
<path d="M61.5389 217.287C61.5389 217.287 62.1361 221.197 84.6619 218.896C107.204 216.58 139.741 208.459 139.741 208.459L87.2618 209.692C87.2618 209.677 67.2067 210.956 61.5389 217.287Z" fill="#E9D6B8"/>
<path d="M122.173 211.677C132.927 210.85 137.901 215.061 142.277 216.144C146.653 217.226 151.109 219.076 151.077 219.031C148.364 215.332 144.893 215.482 143.052 214.354C141.211 213.226 141.711 213.828 145.522 213.286C147.686 212.986 151.771 215.933 154.678 217.527C157.181 218.896 158.699 218.911 158.699 218.911C158.699 218.911 155.663 215.843 151.884 213.467C147.331 210.61 141.824 208.339 140.549 208.008C138.191 207.422 130.989 207.752 125.919 208.73C120.187 209.843 114.438 212.279 122.173 211.677Z" fill="#E9D6B8"/>
<path d="M139.984 208.248C139.984 208.248 148.348 209.391 149.866 210.203C150.916 210.76 155.421 214.189 155.421 214.189C155.421 214.189 152.304 213.993 150.415 212.715C148.526 211.437 139.984 208.248 139.984 208.248Z" fill="#E9D6B8"/>
<path d="M70.791 208.234L59.1806 161.886C59.1806 161.886 52.0434 153.735 47.845 151.344C42.8877 148.517 35.6539 151.389 35.6539 151.389C35.6539 151.389 35.7343 159.329 44.6801 195.015C50.8 219.437 52.2859 229.723 64.7356 227.918C76.3619 226.249 89.4895 223.828 89.4895 223.828L94.1565 207.151L70.791 208.234Z" fill="#B0BFDE"/>
<path d="M110.902 219.783C110.885 219.753 110.869 219.738 110.869 219.723L110.902 217.768H197.856V219.723C197.856 219.723 197.872 219.768 197.856 219.783L197.63 220.144C196.516 221.843 194.513 222.144 192.22 222.144H116.553C114.26 222.144 112.258 221.843 111.128 220.144L110.902 219.783Z" fill="#B3AFC2"/>
<path d="M131.845 220.114C131.845 220.114 131.861 220.144 131.845 220.174L131.635 220.475C131.296 220.911 130.86 221.242 130.359 221.467H117.135C114.923 221.467 113.001 221.226 111.919 219.843L111.709 219.542C111.693 219.527 111.677 219.512 111.677 219.497L111.693 218.535H131.845V220.114Z" fill="#D5D2E6"/>
<path d="M187.037 218.219H143.584V219.602H187.037V218.219Z" fill="#85899F"/>
<path d="M132.329 217.693L143.6 177.902C143.891 176.849 145.054 176.007 146.184 176.007H207.189C208.319 176.007 208.982 176.849 208.691 177.902L197.42 217.693H132.329Z" fill="#D6CEDD"/>
<path d="M166.836 196.85C166.255 198.88 167.563 200.534 169.743 200.534C171.923 200.534 174.167 198.88 174.733 196.85C175.314 194.819 174.006 193.165 171.826 193.165C169.646 193.165 167.402 194.819 166.836 196.85Z" fill="#B3AFC2"/>
</svg>
