<svg width="657" height="592" viewBox="0 0 657 592" fill="none" xmlns="http://www.w3.org/2000/svg">
<path d="M202.917 498.8L202.928 504.862L202.265 509.948L200.362 511.468L198.884 512.057L198.522 512.936L193.577 516.877C192.218 517.62 190.241 518.113 187.777 517.739C186.939 517.614 187.891 515.261 188.146 514.898C189.624 512.795 191.974 510.447 191.974 510.447L195.627 505.049L199.705 498.329L202.917 498.8Z" fill="#161711"/>
<path d="M250.571 505.043L249.467 507.566L248.997 510.345L249.467 514.66L251.829 514.808L253.562 514.28L254.785 514.989C254.785 514.989 261.508 515.732 264 515.607C268.129 515.392 270.349 514.773 271.091 513.912C271.505 513.43 269.511 512.715 268.871 512.675C265.167 512.426 261.123 510.407 261.123 510.407L257.815 507.254L257.028 504.89L250.571 505.043Z" fill="#161711"/>
<path d="M256.847 287.551L254.728 257.259C254.728 257.259 246.142 278.404 248.799 287.732C251.455 297.066 256.847 287.551 256.847 287.551Z" fill="#E9D6B8"/>
<path d="M231.53 314.044L245.615 295.847L246.55 289.723L245.015 289.893L246.72 283.922H258.467L259.322 293.471L257.685 293.811L257.407 299.408L255.21 300.809L246.975 328.044L231.53 314.044Z" fill="#B0BFDE"/>
<path d="M204.797 316.624L234.628 310.522C234.628 310.522 260.172 314.616 260.172 366.785C260.172 367.029 220.899 379.141 220.831 369.274C220.661 344.619 204.797 316.624 204.797 316.624Z" fill="#D1DBEA"/>
<path d="M180.828 305.515L156.258 291.248C156.258 291.248 169.614 310.511 175.68 313.822C181.745 317.134 180.828 305.515 180.828 305.515Z" fill="#E9D6B8"/>
<path d="M213.258 317.701L185.976 304.653L186.604 303.53L179.797 301.824L171.278 313.42L178.771 318.364L179.785 316.363L181.745 313.414L180.136 316.998L187.239 323.598L193.271 324.318L215.688 340.377L213.258 317.701Z" fill="#D1DBEA"/>
<path d="M220.633 368.684L193.814 505.032L203.483 504.725L218.344 460.762L221.731 447.606L239.419 395.591L241.339 367.698L220.633 368.684Z" fill="#163F59"/>
<path d="M248.793 505.638L246.709 450.498L242.121 425.554L236.208 391.281L238.581 367.783L259.832 366.615L258.789 405.957L260.942 441.352L261.361 454.723L260.256 507.617L248.793 505.638Z" fill="#163F59"/>
<path d="M160.993 294.424C160.993 294.424 162.573 289.513 161.757 288.288C160.942 287.063 157.651 282.776 157.651 282.776L156.705 281.761C156.705 281.761 155 282.164 157.243 285.022C159.486 287.885 157.623 287.08 157.623 287.08L154.598 285.254L150.713 283.304L149.099 282.221C149.099 282.221 148.232 281.54 147.887 281.552C146.884 281.586 147.286 282.328 147.286 282.328L153.194 287.063L146.544 284.16C146.544 284.16 145.633 283.927 145.344 284.33C145.077 284.704 145.344 284.846 145.344 284.846L152.084 289.881L148.487 288.764C148.487 288.764 147.587 288.56 147.286 288.935C146.958 289.343 146.856 289.451 146.856 289.451L160.126 295.643L160.993 294.424Z" fill="#E9D6B8"/>
<path d="M152.254 288.044L147.457 286.269C147.457 286.269 146.426 285.753 145.797 285.816C145.078 285.878 145.112 286.502 145.112 286.502L152.084 289.876L152.254 288.044Z" fill="#E9D6B8"/>
<path d="M253.71 263.735C253.71 263.735 249.518 260.735 249.445 259.267C249.371 257.792 249.45 252.388 249.45 252.388L249.603 251.01C249.603 251.01 251.212 250.318 251.116 253.948C251.019 257.582 252.039 255.825 252.039 255.825L253.381 252.553L255.341 248.663L255.986 246.831C255.986 246.831 256.275 245.765 256.564 245.572C257.391 245.005 257.51 245.839 257.51 245.839L255.59 253.165L259.198 246.865C259.198 246.865 259.793 246.134 260.263 246.287C260.704 246.428 260.568 246.701 260.568 246.701L258.156 254.764L260.382 251.719C260.382 251.719 260.982 251.016 261.446 251.141C261.95 251.277 262.098 251.299 262.098 251.299L255.131 264.194L253.71 263.735Z" fill="#E9D6B8"/>
<path d="M256.926 253.397L259.724 249.105C259.724 249.105 260.245 248.079 260.783 247.75C261.4 247.375 261.74 247.891 261.74 247.891L258.155 254.764L256.926 253.397Z" fill="#E9D6B8"/>
<path d="M225.424 303.428C227.021 310.103 227.537 313.545 227.412 314.015C226.568 317.264 217.653 316.453 217.563 314.588C217.472 312.722 214.38 305.107 213.672 304.063C212.964 303.026 224.478 299.47 225.424 303.428Z" fill="#E9D6B8"/>
<path d="M219.716 301.75C217.501 302.152 215.422 302.799 214.369 303.349C215.422 305.226 216.504 307.063 217.331 308.231C219.642 311.48 223.193 311.628 225.549 311.979C226.059 312.053 226.642 312.013 227.26 311.906C227.101 310.715 226.574 308.231 225.419 303.428C224.994 301.631 222.378 301.387 219.716 301.75Z" fill="#E4EEF3"/>
<path d="M221.233 285.419L230.301 301.506C230.301 301.506 232.448 305.322 231.304 306.689C230.16 308.055 226.104 309.989 223.754 309.637C221.403 309.286 217.846 309.138 215.536 305.889C213.23 302.64 208.926 294.163 208.926 294.163C208.926 294.163 208.569 290.772 214.578 289.536C220.588 288.305 221.233 285.419 221.233 285.419Z" fill="#E9D6B8"/>
<path d="M218.486 281.824C219.296 281.62 220.786 281.506 221.743 282.544C222.729 283.621 222.627 286.105 221.698 286.973C220.775 287.834 213.899 291.781 212.885 291.951C211.877 292.121 210.081 292.688 208.609 291.787C207.652 291.203 209.226 287.891 211.022 287.472C215.598 286.417 215.473 282.572 218.486 281.824Z" fill="#194866"/>
<path d="M210.421 290.868L214.341 297.82L215.87 301.807L215.054 302.272L213.559 303.117C213.559 303.117 205.732 294.957 207.431 292.558C209.13 290.165 209.98 290.403 210.421 290.868Z" fill="#194866"/>
<path d="M215.349 303.003C215.689 303.604 215.473 304.37 214.873 304.71L214.239 305.073C213.638 305.413 212.874 305.198 212.534 304.597L211.101 302.05C210.761 301.449 210.976 300.684 211.577 300.344L212.211 299.986C212.811 299.646 213.576 299.862 213.916 300.463L215.349 303.003Z" fill="#E9D6B8"/>
<path d="M226.421 315.603C226.421 315.603 243.917 334.066 248.408 359.147C248.759 361.126 247.27 363.082 247.27 363.082L243.786 361.182C243.786 361.188 235.483 333.811 226.421 315.603Z" fill="#2B99F1"/>
<path d="M226.184 315.472L226.875 319.731L217.257 315.421L217.501 314.27L226.184 315.472Z" fill="#B0BFDE"/>
<path d="M227.475 312.739L230.188 317.077L226.252 315.37L227.475 312.739Z" fill="#B0BFDE"/>
<path d="M362.511 427.567L357.946 429.625L353.766 428.316L351.376 415.33L359.402 415.143L362.511 427.567Z" fill="#593446"/>
<path d="M396.958 424.312L398.43 433.254L388.292 434.456L387.352 422.31L396.958 424.312Z" fill="#593446"/>
<path d="M362.131 433.736L355.244 433.873L355.204 431.774L352.253 433.929L334.888 434.275C334.888 434.275 335.132 431.429 346.799 430.742C349.795 430.567 351.806 426.444 351.806 426.444C351.806 426.444 353.278 425.066 355.584 428.168C356.184 428.973 362.454 427.278 362.454 427.278C362.454 427.278 363.133 431.468 362.131 433.736Z" fill="#081832"/>
<path d="M398.369 439.016L391.475 439.322L391.402 437.195L388.479 439.452L371.108 440.235C371.108 440.235 371.301 437.332 382.968 436.356C385.959 436.101 387.907 431.871 387.907 431.871C387.907 431.871 389.352 430.436 391.714 433.527C392.331 434.332 398.578 432.461 398.578 432.461C398.578 432.461 399.337 436.685 398.369 439.016Z" fill="#081832"/>
<path d="M393.072 255.462C393.072 255.462 383.585 251.708 372.479 249.15C362.086 246.757 351.24 245.731 349.319 246.44C345.344 247.903 345.468 268.317 347.162 285.407C348.238 296.221 347.456 305.118 347.456 305.118C347.456 305.118 379.242 322.385 381.649 322.175C384.056 321.971 390.292 315.603 389.731 310.392C389.17 305.175 392.761 273.811 396.907 269.122C401.053 264.438 399.138 256.613 393.072 255.462Z" fill="#D1DBEA"/>
<path d="M352.82 424.108L363.269 424.476L360.738 309.507L341.991 303.734C341.979 303.729 342.053 377.457 352.82 424.108Z" fill="#163F59"/>
<path d="M381.581 309.603L386.135 368.764L401.234 429.983L386.305 430.351L352.797 307.539L367.251 309.643L381.581 309.603Z" fill="#194866"/>
<path d="M370.135 311.713C370.135 311.713 366.119 310.358 364.748 310.034C356.015 307.948 345.078 299.391 345.078 299.391C345.078 299.391 344.172 306.961 343.084 318.841L366.453 336.266L370.135 311.713Z" fill="#194866"/>
<path d="M383.156 233.364C383.156 233.364 379.559 240.616 382.708 248.266C385.857 255.915 364.436 248.725 364.436 248.725C364.436 248.725 371.681 242.499 360.959 236.794C355.239 233.755 381.649 230.188 383.156 233.364Z" fill="#EDEEF0"/>
<path d="M356.116 305.872C354.808 305.362 353.805 304.239 352.463 303.763C350.169 276.686 360.228 265.447 370.508 247.211C371.499 247.687 372.49 248.164 373.481 248.64C364.906 264.506 354.377 278.558 356.116 305.872Z" fill="#B0BFDE"/>
<path d="M382.436 226.344C382.266 220.815 373.889 212.111 371.069 213.868C369.851 214.623 368.837 215.502 368.14 216.448C367.353 217.611 366.577 218.751 365.807 219.879C365.62 220.129 365.478 220.401 365.354 220.69C365.342 220.713 365.325 220.724 365.314 220.747L358.767 234.923C358.563 235.36 358.755 235.876 359.192 236.08L368.491 240.384C368.894 240.571 376.098 238.518 377.401 237.849C378.941 237.186 380.38 236.93 381.314 236.216C382.509 235.292 382.589 231.3 382.436 226.344Z" fill="#EDEEF0"/>
<path d="M371.012 218.768L371.686 226.145L372.354 233.528L365.631 230.421L359.854 226.049L364.963 223.038L371.012 218.768Z" fill="#EDEEF0"/>
<path d="M381.966 237.01L387.318 225.935C387.318 225.935 386.05 221.076 379.905 216.965C373.759 212.859 370.978 212.933 370.978 212.933L367.308 213.364L367.393 217.214L375.305 220.1L371.641 224.421L370.729 230.591L372.524 231.538L372.542 231.708C372.542 231.708 373.498 228.368 375.922 227.744C378.341 227.115 379.088 229.695 377.452 231.362C375.809 233.029 375.752 233.778 375.752 233.778L377.379 236.976L381.966 237.01Z" fill="#194866"/>
<path d="M371.952 246.015L370.445 249.281L365.592 252.649L363.145 247.222L366.639 243.225L371.952 246.015Z" fill="#B0BFDE"/>
<path d="M383.665 247.801L384.203 252.348L374.642 255.184L370.446 249.281L371.952 246.015L383.665 247.801Z" fill="#B0BFDE"/>
<path d="M398.442 255.796L383.976 251.214C383.976 251.214 367.789 281.262 374.116 295.682C380.442 310.102 378.675 315.699 377.219 323.797C375.764 331.894 378.097 340.576 378.097 340.576L396.539 323.043C396.539 323.043 399.518 317.741 397.875 313.323C396.233 308.912 391.022 298.608 392.376 285.799C393.735 272.995 396.431 258.149 398.442 255.796Z" fill="#163F59"/>
<path d="M344.879 328.044C344.879 328.044 349.846 280.435 351.359 273.477C352.763 267.007 363.151 247.228 363.151 247.228L348.674 245.039C348.674 245.039 339.397 267.942 340.524 274.078C340.864 275.926 341.413 289.831 342.28 295.433C342.755 298.506 335.891 316.618 338.122 319.005C340.654 321.721 345.757 328.333 344.879 328.044Z" fill="#163F59"/>
<path d="M349.427 280.508C349.427 280.508 350.871 275.235 354.247 267.216C357.617 259.198 363.145 247.222 363.145 247.222L354.004 246.292L349.314 255.025L352.474 257.475L347.411 262.725C347.411 262.731 347.841 272.507 349.427 280.508Z" fill="#194866"/>
<path d="M392.897 254.299L388.337 266.077L382.158 270.352L384.441 276.681C384.441 276.681 378.902 282.901 377.865 304.835C377.854 305.112 368.86 286.286 377.763 265.941C381.144 258.212 383.971 251.214 383.971 251.214L392.897 254.299Z" fill="#194866"/>
<path d="M312.023 235.473L308.721 228.459L304.36 226.644L301.562 231.6L300.248 235.513L301.54 238.286C301.54 238.286 306.954 241.268 310.194 240.157C313.434 239.045 312.023 235.473 312.023 235.473Z" fill="#EDEEF0"/>
<path d="M357.419 250.279C357.419 250.279 346.544 271.22 339.329 270.375C332.289 269.553 335.659 265.226 337.176 261.143C338.694 257.061 346.182 247.415 347.139 246.026C348.328 244.296 351.296 245.833 357.419 250.279Z" fill="#163F59"/>
<path d="M340.207 261.478C340.207 261.478 343.067 267.307 339.85 270.596C336.638 273.885 328.55 268.81 320.644 259.176C312.737 249.542 307.238 240.503 307.238 240.503L311.837 234.991C311.842 234.991 340.02 257.883 340.207 261.478Z" fill="#194866"/>
<path d="M334.356 269.814C334.328 270.165 334.3 270.522 334.266 270.874C334.294 270.522 334.328 270.171 334.356 269.814Z" fill="#A9B0B2"/>
<path d="M325.056 234.282C324.943 234.118 324.824 233.959 324.705 233.8C324.824 233.959 324.943 234.124 325.056 234.282Z" fill="#5C5F60"/>
<path d="M343.617 268.328L334.356 269.819C334.328 270.177 334.3 270.528 334.266 270.88L343.526 269.394C343.56 269.037 343.588 268.68 343.617 268.328Z" fill="#717677"/>
<path d="M342.914 273.658L333.654 275.15C333.558 275.632 333.462 276.119 333.36 276.601L342.62 275.115C342.722 274.628 342.818 274.146 342.914 273.658Z" fill="#717677"/>
<path d="M342.914 273.658C342.818 274.152 342.716 274.634 342.614 275.11C342.722 274.628 342.818 274.146 342.914 273.658Z" fill="#5C5F60"/>
<path d="M341.911 277.9L332.651 279.385C332.64 279.419 332.634 279.448 332.623 279.476L341.883 277.99C341.894 277.962 341.9 277.928 341.911 277.9Z" fill="#757A7B"/>
<path d="M333.971 232.315L324.711 233.8C324.83 233.959 324.943 234.118 325.062 234.282L334.322 232.797C334.203 232.638 334.084 232.473 333.971 232.315Z" fill="#5F6364"/>
<path d="M331.303 229.037L322.043 230.523C322.253 230.75 322.456 230.982 322.654 231.22L331.915 229.735C331.717 229.496 331.513 229.264 331.303 229.037Z" fill="#602150"/>
<path d="M314.306 224.28C313.836 224.019 313.366 223.781 312.896 223.559C313.366 223.786 313.836 224.019 314.306 224.28Z" fill="#DFBB60"/>
<path d="M337.205 288.243L327.939 289.728C327.837 289.881 327.735 290.035 327.633 290.188L336.894 288.702C337.001 288.549 337.103 288.396 337.205 288.243Z" fill="#957D40"/>
<path d="M337.205 288.243C337.103 288.396 337.001 288.549 336.893 288.702C337.001 288.555 337.103 288.401 337.205 288.243Z" fill="#DEBB5F"/>
<path d="M336.548 289.19L327.288 290.675C325.997 292.433 324.569 293.953 323.029 295.223L332.289 293.737C333.835 292.467 335.257 290.942 336.548 289.19Z" fill="#957D40"/>
<path d="M331.304 229.037L322.043 230.523L317.58 239.811L326.841 238.325L331.304 229.037Z" fill="#687582"/>
<path d="M322.156 222.074L312.896 223.559C313.366 223.781 313.842 224.019 314.306 224.28L323.566 222.794C323.102 222.533 322.626 222.295 322.156 222.074Z" fill="#7D6936"/>
<path d="M321.505 234.01L312.245 235.496C314.188 236.568 315.977 238.042 317.586 239.811L326.846 238.325C325.238 236.556 323.448 235.082 321.505 234.01Z" fill="#215360"/>
<path d="M331.915 229.735C331.711 229.496 331.507 229.264 331.303 229.037C328.794 226.281 326.455 224.393 323.578 222.8L321.505 234.016C323.453 235.088 325.238 236.568 326.846 238.331L331.309 229.043C331.513 229.264 331.717 229.496 331.915 229.735Z" fill="#3A93AA"/>
<path d="M323.578 222.794L314.317 224.285L312.239 235.496L321.505 234.01L323.578 222.794Z" fill="#7E2B69"/>
<path d="M312.59 232.252L303.33 233.744C306.173 233.284 309.215 233.817 312.239 235.496L321.499 234.01C318.469 232.332 315.427 231.799 312.59 232.252Z" fill="#7C2F15"/>
<path d="M326.2 262.941C326.2 262.918 326.2 262.901 326.2 262.879C326.183 262.323 326.149 261.767 326.115 261.211C326.104 261.081 326.098 260.951 326.081 260.815C326.058 260.52 326.024 260.225 325.99 259.93C325.945 259.488 325.894 259.045 325.832 258.609C325.798 258.342 325.758 258.087 325.718 257.826C325.651 257.395 325.571 256.964 325.492 256.533C325.447 256.284 325.401 256.04 325.345 255.79C325.237 255.28 325.118 254.775 324.988 254.271C324.948 254.101 324.909 253.931 324.863 253.76C324.688 253.091 324.489 252.434 324.28 251.781C324.116 251.277 323.946 250.783 323.764 250.29C323.719 250.165 323.668 250.035 323.617 249.91C323.464 249.508 323.306 249.111 323.141 248.719C323.09 248.595 323.04 248.476 322.989 248.351C322.773 247.857 322.552 247.375 322.326 246.905C322.298 246.848 322.269 246.786 322.235 246.729C322.026 246.304 321.805 245.884 321.578 245.47C321.533 245.379 321.482 245.289 321.431 245.204C321.182 244.761 320.927 244.33 320.661 243.905C320.61 243.82 320.553 243.735 320.496 243.65C320.253 243.264 319.998 242.89 319.743 242.521C319.704 242.465 319.664 242.402 319.624 242.346C319.335 241.943 319.041 241.557 318.741 241.172C318.673 241.087 318.605 241.002 318.531 240.917C318.22 240.537 317.908 240.163 317.58 239.8L326.84 238.314C327.168 238.671 327.48 239.045 327.791 239.425C327.859 239.51 327.933 239.596 328.001 239.686C328.301 240.066 328.596 240.452 328.885 240.854C328.924 240.911 328.97 240.973 329.009 241.036C329.264 241.399 329.513 241.773 329.757 242.159C329.813 242.244 329.87 242.329 329.921 242.414C330.187 242.839 330.442 243.27 330.686 243.712C330.737 243.803 330.788 243.894 330.839 243.99C331.059 244.398 331.275 244.807 331.484 245.226C331.518 245.289 331.552 245.357 331.581 245.425C331.598 245.453 331.609 245.481 331.626 245.51C331.841 245.952 332.045 246.406 332.243 246.859C332.3 246.984 332.351 247.109 332.402 247.239C332.566 247.625 332.725 248.022 332.878 248.419C332.923 248.549 332.974 248.674 333.025 248.804C333.2 249.275 333.365 249.746 333.523 250.228C333.529 250.25 333.54 250.279 333.546 250.301C333.755 250.954 333.948 251.611 334.129 252.275C334.175 252.445 334.214 252.621 334.254 252.791C334.378 253.29 334.497 253.794 334.605 254.299C334.622 254.39 334.65 254.475 334.667 254.56C334.701 254.719 334.724 254.883 334.752 255.042C334.832 255.467 334.911 255.898 334.979 256.335C335.024 256.596 335.058 256.856 335.098 257.123C335.16 257.56 335.211 257.996 335.256 258.433C335.273 258.603 335.302 258.767 335.319 258.938C335.33 259.068 335.336 259.198 335.347 259.323C335.358 259.454 335.37 259.584 335.375 259.709C335.415 260.264 335.449 260.826 335.466 261.387C335.466 261.399 335.466 261.41 335.466 261.416C335.483 261.971 335.483 262.521 335.472 263.077C335.472 263.202 335.472 263.327 335.466 263.446C335.46 263.565 335.466 263.684 335.46 263.803C335.443 264.256 335.421 264.71 335.387 265.158C335.29 266.485 335.126 267.806 334.888 269.105C334.775 269.717 334.645 270.313 334.503 270.897C334.503 270.908 334.497 270.914 334.497 270.925C334.373 271.424 334.237 271.912 334.095 272.388C334.061 272.501 334.027 272.609 333.993 272.723C333.846 273.205 333.687 273.681 333.518 274.146C333.506 274.174 333.495 274.197 333.484 274.225C333.319 274.662 333.144 275.087 332.963 275.507C332.923 275.603 332.878 275.7 332.838 275.796C332.645 276.221 332.447 276.641 332.238 277.043C332.209 277.1 332.175 277.157 332.147 277.219C331.954 277.582 331.756 277.928 331.552 278.268C331.507 278.348 331.456 278.427 331.411 278.506C331.377 278.563 331.348 278.62 331.314 278.671C331.218 278.824 331.11 278.966 331.008 279.119C330.861 279.34 330.714 279.573 330.555 279.788C330.419 279.975 330.284 280.145 330.142 280.327C329.983 280.531 329.825 280.735 329.661 280.933C329.519 281.104 329.366 281.262 329.219 281.427C329.049 281.614 328.879 281.795 328.709 281.971C328.556 282.124 328.397 282.272 328.239 282.419C328.063 282.584 327.888 282.748 327.706 282.901C327.65 282.952 327.593 283.009 327.537 283.054C327.333 283.224 327.117 283.389 326.908 283.542C326.885 283.559 326.868 283.576 326.846 283.587C326.534 283.814 326.217 284.024 325.894 284.222C325.815 284.273 325.73 284.319 325.645 284.37C325.362 284.534 325.078 284.693 324.79 284.835C324.739 284.863 324.693 284.886 324.637 284.914C324.614 284.925 324.591 284.937 324.574 284.942C324.269 285.09 323.951 285.215 323.634 285.339C323.561 285.368 323.487 285.396 323.413 285.419C323.073 285.544 322.734 285.651 322.388 285.748C322.343 285.759 322.298 285.77 322.252 285.782C322.071 285.833 321.884 285.872 321.703 285.912C321.516 285.952 321.329 285.986 321.142 286.014L311.882 287.5C312.261 287.437 312.635 287.358 313.009 287.262C313.049 287.25 313.083 287.245 313.122 287.233C313.473 287.143 313.819 287.029 314.159 286.904C314.232 286.876 314.306 286.848 314.38 286.825C314.714 286.695 315.048 286.553 315.376 286.4C315.433 286.371 315.49 286.343 315.541 286.315C315.824 286.173 316.101 286.02 316.379 285.861C316.464 285.81 316.549 285.759 316.639 285.708C316.957 285.51 317.274 285.305 317.585 285.073C317.608 285.056 317.631 285.039 317.653 285.022C317.925 284.823 318.186 284.608 318.441 284.392C318.622 284.234 318.803 284.069 318.979 283.905C319.132 283.757 319.29 283.616 319.443 283.462C319.619 283.287 319.789 283.1 319.958 282.912C320.106 282.754 320.253 282.595 320.395 282.425C320.559 282.226 320.723 282.022 320.882 281.818C321.018 281.642 321.159 281.466 321.289 281.285C321.442 281.07 321.595 280.843 321.742 280.622C321.878 280.412 322.02 280.213 322.15 279.998C322.196 279.924 322.241 279.845 322.286 279.765C322.496 279.419 322.694 279.068 322.887 278.705C322.915 278.648 322.949 278.592 322.977 278.535C323.187 278.132 323.385 277.713 323.578 277.282C323.623 277.185 323.663 277.089 323.702 276.992C323.883 276.578 324.059 276.148 324.223 275.711C324.235 275.683 324.24 275.66 324.252 275.632C324.422 275.172 324.58 274.69 324.727 274.208C324.761 274.1 324.795 273.993 324.829 273.879C324.977 273.392 325.112 272.893 325.237 272.382C325.379 271.798 325.509 271.203 325.622 270.59C325.866 269.286 326.03 267.965 326.121 266.644C326.16 266.077 326.183 265.51 326.2 264.937C326.206 264.807 326.206 264.676 326.206 264.54C326.217 264.018 326.217 263.48 326.2 262.941Z" fill="#AEC4DB"/>
<path d="M336.548 289.19L327.287 290.675C325.996 292.433 324.569 293.953 323.028 295.223L332.288 293.737C333.835 292.467 335.256 290.942 336.548 289.19Z" fill="#957D40"/>
<path d="M332.294 293.738L323.034 295.223C321.68 296.34 320.247 297.259 318.746 297.973L328.007 296.488C329.508 295.773 330.94 294.855 332.294 293.738Z" fill="#90793E"/>
<path d="M328.007 296.488L318.746 297.973C317.415 298.609 316.028 299.073 314.606 299.374L323.867 297.883C325.288 297.588 326.67 297.117 328.007 296.488Z" fill="#8B753C"/>
<path d="M323.861 297.883L314.6 299.374C314.334 299.425 314.062 299.476 313.796 299.521L323.056 298.036C323.328 297.99 323.595 297.939 323.861 297.883Z" fill="#86713A"/>
<path d="M343.673 267.602C344.562 255.059 341.13 242.278 334.322 232.797C334.203 232.632 334.09 232.473 333.971 232.315C333.767 232.031 333.558 231.748 333.342 231.47C333.19 231.271 333.037 231.084 332.878 230.897C332.567 230.5 332.244 230.115 331.921 229.735C331.723 229.502 331.513 229.27 331.309 229.043L326.846 238.331C332.702 244.761 336.101 255.144 335.387 265.181C335.291 266.508 335.127 267.829 334.889 269.128C332.317 283.015 322.157 289.797 312.194 284.279C308.229 282.085 304.91 278.263 302.497 273.596L296.075 280.06C299.575 286.808 304.389 292.32 310.115 295.49C310.75 295.836 311.384 296.142 312.024 296.425C312.188 296.499 312.347 296.573 312.511 296.641C312.992 296.845 313.48 297.026 313.961 297.191C314.222 297.276 314.482 297.361 314.743 297.44C314.997 297.52 315.252 297.588 315.507 297.656C323.55 299.703 331.224 296.437 336.554 289.184C336.69 288.997 336.792 288.85 336.899 288.702C337.001 288.549 337.103 288.396 337.211 288.243C338.944 285.685 340.4 282.68 341.498 279.278C341.646 278.807 341.77 278.393 341.889 277.985C341.963 277.718 342.014 277.554 342.065 277.384C342.133 277.134 342.189 276.873 342.257 276.624C342.348 276.261 342.444 275.898 342.529 275.518C342.558 275.382 342.586 275.24 342.62 275.099C342.722 274.622 342.824 274.14 342.92 273.647C343.118 272.57 343.248 271.685 343.367 270.8C343.384 270.681 343.401 270.551 343.418 270.426C343.464 270.08 343.498 269.729 343.532 269.377C343.566 269.026 343.594 268.668 343.622 268.317C343.634 268.084 343.651 267.84 343.673 267.602Z" fill="#E4EEF3"/>
<path d="M299.7 226.1L290.439 227.591L295.735 237.809L305.001 236.318L299.7 226.1Z" fill="#873317"/>
<path d="M301.002 224.88L291.742 226.366C289.879 227.977 288.185 229.961 286.713 232.286L295.973 230.801C297.445 228.476 299.139 226.491 301.002 224.88Z" fill="#9E792F"/>
<path d="M301.002 224.88L291.742 226.366C289.879 227.977 288.185 229.961 286.713 232.286L295.973 230.801C297.445 228.476 299.139 226.491 301.002 224.88Z" fill="#8D9497"/>
<path d="M310.613 220.117L301.353 221.603C301.099 221.643 300.843 221.688 300.594 221.745L309.855 220.259C310.11 220.202 310.358 220.157 310.613 220.117Z" fill="#853216"/>
<path d="M309.854 220.259L300.594 221.745C299.257 222.023 297.943 222.471 296.663 223.077L305.923 221.586C307.204 220.979 308.518 220.537 309.854 220.259Z" fill="#8A3417"/>
<path d="M305.924 221.586L296.663 223.077C295.168 223.786 293.712 224.722 292.313 225.884L301.574 224.399C302.973 223.231 304.428 222.295 305.924 221.586Z" fill="#8F3618"/>
<path d="M301.574 224.393L292.314 225.879C292.121 226.037 291.929 226.202 291.742 226.372C291.306 226.752 290.864 227.16 290.445 227.591L299.705 226.105C300.129 225.674 300.566 225.266 301.002 224.886C301.189 224.716 301.381 224.552 301.574 224.393Z" fill="#943819"/>
<path d="M290.762 244.71L281.502 246.196L289.544 250.642L298.805 249.156L290.762 244.71Z" fill="#807026"/>
<path d="M290.762 244.705L281.501 246.196C281.377 246.859 281.275 247.517 281.178 248.175L290.439 246.689C290.535 246.026 290.643 245.368 290.762 244.705Z" fill="#2D9A82"/>
<path d="M290.762 244.71L281.501 246.196C281.377 246.854 281.275 247.512 281.178 248.169L290.439 246.684C290.535 246.026 290.643 245.368 290.762 244.71Z" fill="#2D3137"/>
<path d="M301.002 224.88L291.742 226.366C289.879 227.977 288.185 229.961 286.713 232.286L295.973 230.801C297.445 228.476 299.139 226.491 301.002 224.88Z" fill="#8D9497"/>
<path d="M295.968 230.806L286.707 232.292C284.702 235.462 283.105 239.267 282.046 243.616L291.307 242.125C292.366 237.775 293.963 233.97 295.968 230.806Z" fill="#92989C"/>
<path d="M291.306 242.125L282.046 243.616C281.842 244.455 281.66 245.317 281.496 246.196C281.366 246.882 281.258 247.574 281.162 248.266L290.422 246.774C290.519 246.083 290.626 245.397 290.756 244.705C290.921 243.826 291.108 242.964 291.306 242.125Z" fill="#8D9497"/>
<path d="M301.002 224.88L291.742 226.366C289.879 227.977 288.185 229.961 286.713 232.286L295.973 230.801C297.445 228.476 299.139 226.491 301.002 224.88Z" fill="#9E792F"/>
<path d="M295.968 230.806L286.707 232.292C284.702 235.462 283.105 239.267 282.046 243.616L291.307 242.125C292.366 237.775 293.963 233.97 295.968 230.806Z" fill="#A37D30"/>
<path d="M291.306 242.125L282.046 243.616C281.842 244.455 281.66 245.317 281.496 246.196C281.366 246.882 281.258 247.574 281.162 248.266L290.422 246.774C290.519 246.083 290.626 245.397 290.756 244.705C290.921 243.826 291.108 242.964 291.306 242.125Z" fill="#9E792F"/>
<path d="M305 236.318L299.705 226.105C300.129 225.674 300.566 225.266 301.002 224.886C296.114 229.105 292.387 235.921 290.762 244.705C290.631 245.396 290.524 246.083 290.427 246.774L290.439 246.689C290.535 246.032 290.643 245.374 290.762 244.71L298.81 249.156C299.829 243.639 302.066 239.261 305 236.318Z" fill="#ECB445"/>
<path d="M323.578 222.794C323.097 222.533 322.627 222.295 322.156 222.068C314.561 218.422 307.237 219.386 300.996 224.881C300.56 225.266 300.124 225.675 299.699 226.1L304.995 236.312C309.441 231.844 315.495 230.682 321.493 234.005L323.578 222.794Z" fill="#DC5325"/>
<path d="M286.809 281.54C286.475 280.899 286.152 280.247 285.84 279.584C286.152 280.242 286.469 280.888 286.809 281.54Z" fill="#24252D"/>
<path d="M290.422 246.774L281.162 248.266C281.083 248.765 281.026 249.275 280.97 249.78C280.958 249.859 280.953 249.944 280.941 250.024C280.856 250.789 280.783 251.555 280.732 252.32C280.686 252.984 280.652 253.653 280.624 254.322L289.884 252.836C289.907 252.173 289.941 251.504 289.986 250.834C290.043 250.069 290.111 249.309 290.196 248.538C290.207 248.459 290.218 248.373 290.224 248.294C290.292 247.778 290.349 247.273 290.422 246.774Z" fill="#2D779A"/>
<path d="M289.89 252.825L280.63 254.311C280.55 256.607 280.618 258.898 280.828 261.183L290.088 259.692C289.873 257.418 289.811 255.122 289.89 252.825Z" fill="#2B7495"/>
<path d="M290.082 259.698L280.822 261.189C281.009 263.191 281.297 265.181 281.705 267.154L290.965 265.669C290.563 263.69 290.269 261.699 290.082 259.698Z" fill="#2A7090"/>
<path d="M290.965 265.663L281.705 267.149C282.119 269.167 282.645 271.169 283.285 273.137L292.546 271.651C291.906 269.683 291.379 267.682 290.965 265.663Z" fill="#286C8B"/>
<path d="M292.546 271.651L283.286 273.137C283.994 275.325 284.849 277.48 285.84 279.584C285.931 279.782 286.027 279.981 286.123 280.174L295.384 278.688C295.287 278.495 295.197 278.297 295.1 278.098C294.109 275.989 293.26 273.834 292.546 271.651Z" fill="#276886"/>
<path d="M295.384 278.688L286.124 280.174C286.344 280.633 286.571 281.087 286.809 281.54L296.069 280.055C295.831 279.595 295.605 279.142 295.384 278.688Z" fill="#256381"/>
<path d="M302.492 273.596L293.232 275.081L286.809 281.546L296.069 280.06L302.492 273.596Z" fill="#63657C"/>
<path d="M310.115 295.49C310.75 295.835 311.384 296.142 312.024 296.425C312.188 296.499 312.347 296.573 312.511 296.641C312.993 296.845 313.48 297.026 313.961 297.191C314.222 297.276 314.482 297.361 314.743 297.44C314.998 297.52 315.252 297.588 315.507 297.656C315.513 297.656 315.513 297.656 315.519 297.656C315.655 297.69 315.785 297.718 315.915 297.752C318.351 298.319 320.752 298.404 323.057 298.036C322.53 298.121 322.009 298.206 321.483 298.291C321.658 298.279 321.839 298.262 322.015 298.245C322.111 298.24 322.213 298.234 322.315 298.223C322.598 298.194 322.876 298.155 323.159 298.109C323.182 298.109 323.21 298.104 323.238 298.104H323.233C323.233 298.104 323.233 298.104 323.238 298.104L313.978 299.589C313.95 299.595 313.916 299.595 313.887 299.601C313.616 299.64 313.338 299.68 313.055 299.708C312.936 299.72 312.817 299.725 312.704 299.737C312.511 299.754 312.319 299.771 312.126 299.782C311.996 299.793 311.86 299.788 311.724 299.793C311.543 299.799 311.367 299.805 311.186 299.805C311.05 299.805 310.908 299.799 310.767 299.793C310.591 299.788 310.416 299.788 310.24 299.776C310.098 299.771 309.957 299.754 309.81 299.748C309.634 299.731 309.458 299.72 309.288 299.703C309.141 299.686 308.994 299.669 308.847 299.652C308.677 299.629 308.501 299.606 308.326 299.578C308.178 299.555 308.031 299.527 307.878 299.499C307.708 299.47 307.533 299.436 307.363 299.402C307.21 299.368 307.057 299.334 306.91 299.3C306.785 299.272 306.666 299.243 306.541 299.215C306.491 299.204 306.44 299.187 306.389 299.175C306.343 299.164 306.292 299.158 306.241 299.141C305.986 299.073 305.737 299 305.482 298.926C305.222 298.846 304.961 298.761 304.701 298.676C304.225 298.512 303.738 298.33 303.251 298.126C303.092 298.058 302.928 297.985 302.764 297.911C302.124 297.627 301.489 297.321 300.855 296.975C295.123 293.805 290.309 288.294 286.809 281.546L296.069 280.06C299.569 286.808 304.384 292.314 310.115 295.49Z" fill="#96A9BD"/>
<path d="M290.235 248.283L280.975 249.768C280.963 249.848 280.958 249.933 280.946 250.012L290.207 248.527C290.212 248.447 290.224 248.368 290.235 248.283Z" fill="#958A40"/>
<path d="M290.235 248.283L280.975 249.768C280.963 249.848 280.958 249.933 280.946 250.012L290.207 248.527C290.212 248.447 290.224 248.368 290.235 248.283Z" fill="#8D8F97"/>
<path d="M290.422 246.774L281.162 248.266C281.083 248.765 281.026 249.275 280.97 249.78C280.958 249.859 280.953 249.944 280.941 250.024C280.856 250.789 280.783 251.555 280.732 252.32C280.686 252.984 280.652 253.653 280.624 254.322L289.884 252.836C289.907 252.173 289.941 251.504 289.986 250.834C290.043 250.069 290.111 249.309 290.196 248.538C290.207 248.459 290.218 248.373 290.224 248.294C290.292 247.778 290.349 247.273 290.422 246.774Z" fill="#2D779A"/>
<path d="M289.89 252.825L280.63 254.311C280.55 256.607 280.618 258.898 280.828 261.183L290.088 259.692C289.873 257.418 289.811 255.122 289.89 252.825Z" fill="#2B7495"/>
<path d="M290.082 259.698L280.822 261.189C281.009 263.191 281.297 265.181 281.705 267.154L290.965 265.669C290.563 263.69 290.269 261.699 290.082 259.698Z" fill="#2A7090"/>
<path d="M290.965 265.663L281.705 267.149C282.119 269.167 282.645 271.169 283.285 273.137L292.546 271.651C291.906 269.683 291.379 267.682 290.965 265.663Z" fill="#286C8B"/>
<path d="M292.546 271.651L283.286 273.137C283.994 275.325 284.849 277.48 285.84 279.584C285.931 279.782 286.027 279.981 286.123 280.174L295.384 278.688C295.287 278.495 295.197 278.297 295.1 278.098C294.109 275.989 293.26 273.834 292.546 271.651Z" fill="#276886"/>
<path d="M295.384 278.688L286.124 280.174C286.344 280.633 286.571 281.087 286.809 281.54L296.069 280.055C295.831 279.595 295.605 279.142 295.384 278.688Z" fill="#256381"/>
<path d="M295.101 278.098L285.84 279.584C285.937 279.782 286.027 279.987 286.124 280.185L295.384 278.699C295.288 278.495 295.197 278.297 295.101 278.098Z" fill="#272830"/>
<path d="M295.384 278.699L286.124 280.185C286.344 280.639 286.577 281.092 286.803 281.54L296.064 280.054C295.837 279.607 295.61 279.153 295.384 278.699Z" fill="#25262E"/>
<path d="M286.69 281.313C286.73 281.387 286.769 281.461 286.809 281.54L296.069 280.055C295.735 279.414 295.412 278.762 295.101 278.098C292.325 278.546 288.616 279.142 285.84 279.584C286.033 279.998 286.288 280.531 286.69 281.313Z" fill="#276886"/>
<path d="M295.101 278.098L285.84 279.584C285.937 279.782 286.027 279.987 286.124 280.185L295.384 278.699C295.288 278.495 295.197 278.297 295.101 278.098Z" fill="#276886"/>
<path d="M295.384 278.699L286.124 280.185C286.344 280.639 286.577 281.092 286.803 281.54L296.064 280.054C295.837 279.607 295.61 279.153 295.384 278.699Z" fill="#276886"/>
<path d="M302.492 273.596C299.399 267.63 297.796 260.276 298.306 253.103C298.396 251.781 298.567 250.466 298.805 249.167L290.762 244.71C290.638 245.374 290.536 246.032 290.439 246.695L290.428 246.78C290.354 247.279 290.292 247.789 290.235 248.294C290.224 248.379 290.218 248.459 290.207 248.538C290.122 249.303 290.049 250.069 289.998 250.834C289.335 260.174 291.068 269.524 295.106 278.104C295.418 278.762 295.734 279.408 296.074 280.06L302.492 273.596Z" fill="#43B3E6"/>
<path d="M324.025 286.054C324.025 286.054 322.734 285.351 320.899 283.757C319.788 282.794 318.593 284.171 318.593 284.171L316.787 284.988L316.872 282.272L317.738 275.428L322.841 271.679C322.841 271.679 324.246 271.872 324.852 272.672C325.458 273.477 327.095 278.796 327.095 278.796L324.025 286.054Z" fill="#EDEEF0"/>
<path d="M400.566 257.787C400.905 258.416 402.78 269.604 395.423 278.206C392.863 281.194 371.431 297.128 364.096 297.832C356.762 298.529 356.977 292.643 358.365 289.139C359.752 285.634 365.031 282.827 372.201 276.176C379.638 269.281 384.424 263.905 387.726 261.331C392.478 257.622 397.603 252.309 400.566 257.787Z" fill="#194866"/>
<path d="M368.367 294.168C368.367 294.168 368.174 297.877 362.646 297.9C361.117 297.905 358.172 297.168 355.924 296.544C345.564 293.686 322.926 286.763 322.926 286.763L327.797 277.384C327.797 277.384 349.518 281.591 354.241 282.674C358.965 283.757 369.511 283.202 368.367 294.168Z" fill="#194866"/>
<path d="M559.526 393.141H439.906V590.146H559.526V393.141Z" fill="#D1DBEA"/>
<path d="M465.677 393.141H439.906V590.146H465.677V393.141Z" fill="#B0BFDE"/>
<path d="M424.184 435.126H304.559V590.758H424.184V435.126Z" fill="#3DC7C9"/>
<path d="M330.329 435.126H304.559V590.758H330.329V435.126Z" fill="#34A9AB"/>
<path d="M289.493 512.477H169.874V591.541H289.493V512.477Z" fill="#2B99F1"/>
<path d="M195.644 512.477H169.874V591.541H195.644V512.477Z" fill="#2C7EEA"/>
<path d="M485.869 216.806C485.869 216.806 484.3 224.648 460.772 220.123C437.245 215.598 439.181 210.466 439.181 210.466L438.814 204.433L451.048 191.311L457.635 196.795L457.322 198.099C457.322 198.099 458.263 199.607 459.832 199.607C461.4 199.607 468.203 201.535 481.694 202.136C487.913 202.42 486.186 215.297 485.869 216.806Z" fill="#D1DBEA"/>
<path d="M481.79 202.329C481.524 202.318 481.258 202.301 480.998 202.289C482.085 205.941 482.011 210.461 481.943 211.334C481.943 211.334 481.411 219.306 457.475 217.656C453.16 217.362 449.688 216.942 446.885 216.454C450.005 217.645 454.446 218.904 460.772 220.123C484.3 224.648 485.869 216.806 485.869 216.806C486.186 215.297 488.009 202.607 481.79 202.329Z" fill="#B0BFDE"/>
<path d="M451.047 192.973C451.047 192.973 440.779 179.097 454.502 167.932C458.58 164.615 453.562 166.423 448.856 168.533C444.149 170.648 434.424 181.206 435.37 191.765C436.31 202.323 437.568 206.242 441.64 207.75C445.718 209.264 451.047 192.973 451.047 192.973Z" fill="#E9D6B8"/>
<path d="M454.287 166.248L464.952 162.324L467.15 166.248L464.635 169.865L461.814 169.264L459.305 170.472L454.287 166.248Z" fill="#E9D6B8"/>
<path d="M478.969 392.676C478.969 392.676 493.713 366.433 494.024 352.558C494.342 338.682 491.663 327.619 491.663 327.619L478.341 324.199L478.969 392.676Z" fill="#163F59"/>
<path d="M478.969 264.773L478.341 324.199L490.886 331.134C490.886 331.134 498.413 316.958 499.353 298.858C500.299 280.758 478.969 264.773 478.969 264.773Z" fill="#163F59"/>
<path d="M478.97 264.773L506.575 329.932L511.593 336.867L533.552 387.244L536.061 388.752C536.061 388.752 540.456 359.186 532.923 346.518C525.396 333.851 521.63 326.91 521.63 326.91L505.001 262.958L478.97 264.773Z" fill="#194866"/>
<path d="M478.03 265.674L505.947 265.073L517.552 226.156C517.552 226.156 525.079 202.63 510.648 202.329C496.216 202.028 479.593 202.028 479.593 202.028C479.593 202.028 469.868 210.472 478.03 265.674Z" fill="#D1DBEA"/>
<path d="M534.181 251.498L522.887 284.381C522.887 284.381 536.69 272.921 540.139 265.374C543.588 257.837 545.474 249.689 545.474 249.689L534.181 251.498Z" fill="#E9D6B8"/>
<path d="M524.705 282.873L516.861 289.808L513.411 283.474H515.603L517.172 280.758L521.878 282.572L524.705 282.873Z" fill="#E9D6B8"/>
<path d="M503.438 170.654C503.438 170.654 489.006 184.229 490.575 189.054C492.144 193.88 492.456 197.804 492.456 199.307C492.456 200.815 490.887 207.449 492.144 207.149C493.396 206.848 501.552 204.132 502.498 202.023C503.438 199.908 505.007 193.574 505.007 193.574C505.007 193.574 517.059 187.597 514.59 178.853C513.865 176.301 504.695 170.047 503.438 170.654Z" fill="#E9D6B8"/>
<path d="M493.531 207.489C493.531 207.489 480.884 229.326 484.475 253.488C484.758 255.394 487.023 256.755 487.023 256.755L490.133 254.033C490.133 254.033 489.883 226.684 493.531 207.489Z" fill="#2B99F1"/>
<path d="M493.985 206.911L494.676 211.736L502.939 203.9V202.692L493.985 206.911Z" fill="#B0BFDE"/>
<path d="M491.384 203.798L489.935 210.075L493.599 206.911L491.384 203.798Z" fill="#B0BFDE"/>
<path d="M456.683 205.278L458.603 201.218L459.271 199.545C458.042 199.256 457.323 198.105 457.323 198.105L456.49 201.399L454.763 205.091L450.928 209.151L456.683 205.278Z" fill="#B0BFDE"/>
<path d="M515.671 224.954L531.983 249.995L534.18 250.296L533.551 252.411L545.372 251.504L547.988 241.246L525.084 207.461C525.084 207.461 517.948 200.968 506.263 202.635C497.79 203.837 514.413 222.839 515.671 224.954Z" fill="#D1DBEA"/>
<path d="M544.392 244.96C544.392 244.96 537.091 248.47 533.217 250.16L534.174 250.29L533.546 252.405L537.629 252.059L543.355 250.704L543.667 248.283H541.894L544.392 244.96Z" fill="#B0BFDE"/>
<path d="M482.645 384.522L483.591 386.688L483.999 389.07L483.591 392.773L481.569 392.897L480.085 392.444L479.037 393.051C479.037 393.051 473.272 393.691 471.136 393.578C467.597 393.391 465.694 392.863 465.054 392.121C464.697 391.707 466.407 391.094 466.957 391.06C470.134 390.845 475.288 389.115 475.288 389.115C475.288 389.115 477.684 387.289 478.12 386.41C478.743 385.152 479.117 383.655 479.117 383.655L482.645 384.522Z" fill="#163F59"/>
<path d="M535.715 384.522L536.661 386.688L537.069 389.07L536.661 392.773L534.639 392.897L533.15 392.444L532.101 393.051C532.101 393.051 526.336 393.691 524.2 393.578C520.661 393.391 518.758 392.863 518.124 392.121C517.767 391.707 519.477 391.094 520.026 391.06C523.204 390.845 528.358 389.115 528.358 389.115C528.358 389.115 530.754 387.289 531.19 386.41C531.813 385.152 532.186 383.655 532.186 383.655L535.715 384.522Z" fill="#194866"/>
<path d="M596.199 52.2004L510.074 138.282L448.531 76.7685L375.544 149.719L343.999 118.189L248.435 213.704L197.097 162.392L91.3159 268.12H106.185L197.097 177.254L248.435 228.567L343.999 133.051L375.544 164.581L448.531 91.6306L510.074 153.144L603.634 59.6315L596.199 52.2004Z" fill="url(#paint0_linear)"/>
<defs>
<linearGradient id="paint0_linear" x1="91.3159" y1="160.159" x2="603.635" y2="160.159" gradientUnits="userSpaceOnUse">
<stop stop-color="#FF8A8A"/>
<stop offset="1" stop-color="#6FFF7D"/>
</linearGradient>
</defs>
</svg>
