<svg width="722" height="444" viewBox="0 0 722 444" fill="none" xmlns="http://www.w3.org/2000/svg">
<path d="M230.519 443.35C103.406 443.35 0.361007 427.183 0.361007 407.239C0.361007 387.295 103.406 371.128 230.519 371.128C357.632 371.128 460.678 387.295 460.678 407.239C460.678 427.183 357.632 443.35 230.519 443.35Z" fill="#6855C1"/>
<path d="M74.9214 397.827L79.3992 399.97L83.5091 398.61L85.8556 385.054L77.976 384.862L74.9214 397.827Z" fill="#593446"/>
<path d="M41.0985 394.429L39.6476 403.759L49.6098 405.015L50.5262 392.338L41.0985 394.429Z" fill="#593446"/>
<path d="M75.2963 404.262L82.0581 404.402L82.0997 402.215L85.0016 404.469L102.052 404.831C102.052 404.831 101.816 401.853 90.3611 401.144C87.4245 400.959 85.446 396.66 85.446 396.66C85.446 396.66 84.0019 395.219 81.7387 398.455C81.1486 399.297 74.9908 397.531 74.9908 397.531C74.9908 397.531 74.3105 401.898 75.2963 404.262Z" fill="#081832"/>
<path d="M39.7101 409.773L46.4718 410.09L46.5482 407.874L49.4154 410.231L66.4725 411.043C66.4725 411.043 66.285 408.014 54.8303 406.995C51.8868 406.729 49.9777 402.319 49.9777 402.319C49.9777 402.319 48.5545 400.826 46.2358 404.047C45.6318 404.882 39.5018 402.932 39.5018 402.932C39.5018 402.932 38.759 407.342 39.7101 409.773Z" fill="#081832"/>
<path d="M44.9099 218.203C44.9099 218.203 54.2264 214.28 65.1258 211.613C75.3379 209.116 85.9874 208.045 87.8688 208.783C91.7773 210.313 91.6523 231.619 89.9862 249.453C88.9309 260.741 89.6946 270.027 89.6946 270.027C89.6946 270.027 58.4821 288.046 56.1147 287.824C53.7544 287.61 47.6313 280.969 48.1797 275.531C48.7351 270.087 45.2014 237.352 41.1333 232.461C37.072 227.57 38.9534 219.407 44.9099 218.203Z" fill="#D1DBEA"/>
<path d="M84.4394 394.214L74.1786 394.599L76.6709 274.608L95.082 268.587C95.075 268.587 95.0056 345.529 84.4394 394.214Z" fill="#163F59"/>
<path d="M56.198 274.711L51.7202 336.457L36.8984 400.346L51.5606 400.73L84.4532 272.554L70.2631 274.755L56.198 274.711Z" fill="#194866"/>
<path d="M67.4377 276.913C67.4377 276.913 71.3809 275.502 72.7208 275.154C81.2945 272.975 92.0342 264.043 92.0342 264.043C92.0342 264.043 92.9228 271.948 93.9919 284.337L71.0477 302.526L67.4377 276.913Z" fill="#194866"/>
<path d="M54.6498 195.146C54.6498 195.146 58.1835 202.718 55.0872 210.697C51.9979 218.683 73.0331 211.177 73.0331 211.177C73.0331 211.177 65.9172 204.676 76.4488 198.721C82.0581 195.552 56.1286 191.829 54.6498 195.146Z" fill="#E9D6B8"/>
<path d="M81.2041 270.818C82.4884 270.286 83.4742 269.111 84.7863 268.609C87.0425 240.351 77.1637 228.62 67.0697 209.589C66.0978 210.091 65.1259 210.586 64.147 211.081C72.568 227.644 82.9049 242.309 81.2041 270.818Z" fill="#B0BFDE"/>
<path d="M55.351 187.817C55.5176 182.047 63.7442 172.968 66.5142 174.8C67.7083 175.59 68.708 176.507 69.3883 177.496C70.1589 178.708 70.9226 179.905 71.6793 181.072C71.8598 181.331 71.9986 181.619 72.1236 181.922C72.1375 181.944 72.1514 181.959 72.1653 181.981L78.5938 196.778C78.7952 197.236 78.6008 197.776 78.1773 197.983L69.0482 202.474C68.6525 202.666 61.5782 200.524 60.3008 199.829C58.7874 199.135 57.3712 198.869 56.4548 198.13C55.2816 197.163 55.2052 192.988 55.351 187.817Z" fill="#E9D6B8"/>
<path d="M66.5698 179.905L65.9103 187.61L65.2578 195.316L71.8529 192.073L77.5316 187.507L72.5124 184.367L66.5698 179.905Z" fill="#E9D6B8"/>
<path d="M55.816 198.95L50.5607 187.389C50.5607 187.389 51.8103 182.313 57.8432 178.028C63.883 173.751 66.6114 173.817 66.6114 173.817L70.2214 174.261L70.1381 178.28L62.3696 181.294L65.9658 185.8L66.8613 192.235L65.098 193.225L65.0771 193.402C65.0771 193.402 64.133 189.915 61.7587 189.265C59.3844 188.608 58.6485 191.297 60.2591 193.04C61.8698 194.776 61.9253 195.559 61.9253 195.559L60.3286 198.899L55.816 198.95Z" fill="#194866"/>
<path d="M65.6464 208.348L67.1321 211.753L71.8945 215.27L74.2966 209.611L70.8671 205.437L65.6464 208.348Z" fill="#B0BFDE"/>
<path d="M54.1502 210.209L53.6226 214.96L63.0015 217.922L67.1321 211.753L65.6464 208.348L54.1502 210.209Z" fill="#B0BFDE"/>
<path d="M39.6406 218.557L53.8446 213.778C53.8446 213.778 69.7426 245.138 63.5292 260.187C57.3158 275.236 59.0514 281.072 60.4815 289.524C61.9116 297.975 59.6137 307.04 59.6137 307.04L41.5081 288.74C41.5081 288.74 38.5854 283.207 40.196 278.597C41.8136 273.987 46.9231 263.238 45.5971 249.874C44.2642 236.502 41.6122 221.018 39.6406 218.557Z" fill="#163F59"/>
<path d="M92.2356 293.956C92.2356 293.956 87.3621 244.267 85.8765 237.005C84.4949 230.252 74.3036 209.604 74.3036 209.604L88.5145 207.321C88.5145 207.321 97.6229 231.227 96.519 237.632C96.1858 239.561 95.6443 254.07 94.7973 259.921C94.3322 263.127 101.073 282.025 98.8794 284.522C96.3802 287.359 91.3678 294.259 92.2356 293.956Z" fill="#163F59"/>
<path d="M87.7646 244.348C87.7646 244.348 86.3483 238.844 83.0368 230.474C79.7253 222.103 74.2964 209.611 74.2964 209.611L83.2729 208.643L87.8757 217.752L84.7724 220.308L89.7501 225.79C89.7501 225.79 89.3266 236 87.7646 244.348Z" fill="#194866"/>
<path d="M45.0833 216.991L49.5611 229.284L55.6287 233.746L53.3863 240.351C53.3863 240.351 58.8221 246.837 59.8427 269.732C59.8565 270.02 68.6871 250.376 59.9468 229.136C56.6283 221.069 53.8445 213.763 53.8445 213.763L45.0833 216.991Z" fill="#194866"/>
<path d="M124.496 197.34L127.738 190.019L132.015 188.127L134.757 193.299L136.048 197.384L134.785 200.28C134.785 200.28 129.467 203.39 126.288 202.238C123.108 201.071 124.496 197.34 124.496 197.34Z" fill="#E9D6B8"/>
<path d="M79.9205 212.795C79.9205 212.795 90.5971 234.648 97.6783 233.769C104.593 232.912 101.282 228.398 99.7895 224.135C98.3038 219.872 90.9449 209.81 90.0077 208.362C88.8483 206.552 85.9325 208.155 79.9205 212.795Z" fill="#163F59"/>
<path d="M96.8173 224.482C96.8173 224.482 94.0126 230.57 97.1713 233.998C100.323 237.433 108.265 232.136 116.027 222.081C123.788 212.027 129.189 202.593 129.189 202.593L124.677 196.838C124.67 196.845 97.0047 220.737 96.8173 224.482Z" fill="#194866"/>
<path d="M103.357 205.134C95.7135 224.416 102.732 246.158 119.033 253.686C135.347 261.214 154.758 251.676 162.401 232.387C170.052 213.113 163.026 191.378 146.719 183.85C130.418 176.322 111 185.852 103.357 205.134Z" fill="#F4901E"/>
<path d="M101.309 202.29C93.6726 221.572 100.684 243.314 116.992 250.834C133.299 258.362 152.724 248.825 160.36 229.543C168.011 210.254 160.985 188.526 144.678 180.998C128.37 173.478 108.953 183.008 101.309 202.29Z" fill="#FFC400"/>
<path d="M150.086 226.987C155.924 212.271 150.558 195.678 138.11 189.923C132.883 187.507 127.239 187.396 122.018 189.162C127.655 186.82 133.91 186.694 139.651 189.339C152.099 195.087 157.472 211.679 151.634 226.403C148.246 234.943 141.838 240.972 134.611 243.41C141.193 240.676 146.948 234.914 150.086 226.987Z" fill="#F4901E"/>
<path d="M118.561 227.275L128.426 231.161L128.828 230.008C128.363 229.499 127.884 229.011 127.391 228.56C126.898 228.11 126.385 227.689 125.85 227.297L132.647 207.757L133.327 205.356C133.862 205.895 134.438 206.36 135.076 206.737C135.715 207.121 136.395 207.446 137.124 207.705L137.624 206.818C136.729 206.013 135.826 205.09 134.938 204.063C134.042 203.036 133.278 201.876 132.647 200.598L131.807 200.273L122.83 226.1C122.212 226.041 121.581 226.004 120.942 226.012C120.303 226.019 119.651 226.056 118.984 226.122L118.561 227.275Z" fill="#F4901E"/>
<path d="M112.708 250.14C112.708 250.14 113.979 249.408 115.777 247.746C116.867 246.741 118.04 248.175 118.04 248.175L119.817 249.024L119.734 246.187L118.88 239.043L113.868 235.135C113.868 235.135 112.486 235.335 111.889 236.17C111.292 237.004 109.688 242.56 109.688 242.56L112.708 250.14Z" fill="#E9D6B8"/>
<path d="M37.5511 220.633C37.2179 221.291 35.3712 232.971 42.5981 241.939C45.1112 245.057 66.1533 261.687 73.3594 262.418C80.5586 263.149 80.3504 257.003 78.9897 253.346C77.629 249.689 72.4431 246.756 65.4036 239.819C58.1072 232.624 53.4073 227.009 50.1652 224.327C45.4931 220.456 40.4599 214.915 37.5511 220.633Z" fill="#194866"/>
<path d="M69.1732 258.599C69.1732 258.599 69.3606 262.47 74.7895 262.492C76.296 262.499 79.184 261.731 81.3916 261.081C91.569 258.096 113.791 250.879 113.791 250.879L109.008 241.09C109.008 241.09 87.6813 245.486 83.0439 246.608C78.3995 247.739 68.0485 247.155 69.1732 258.599Z" fill="#194866"/>
<path d="M212.511 377.319C213.136 377.319 213.643 375.982 213.643 374.334V201.484C213.643 199.83 213.136 198.492 212.511 198.492C211.886 198.492 211.379 199.837 211.379 201.492V374.342C211.379 375.982 211.886 377.319 212.511 377.319Z" fill="#103153"/>
<path d="M212.469 340.528C212.914 340.055 212.914 339.294 212.469 338.822L205.145 331.027C204.708 330.555 203.993 330.555 203.548 331.027C203.104 331.5 203.104 332.261 203.548 332.734L210.866 340.521C211.31 340.993 212.032 340.993 212.469 340.528Z" fill="#103153"/>
<path d="M184.103 310.334C190.261 307.269 197.807 308.421 202.889 313.829C207.971 319.237 209.047 327.267 206.166 333.813C200.015 336.878 192.469 335.726 187.387 330.326C182.305 324.918 181.222 316.887 184.103 310.334Z" fill="#103153"/>
<path d="M206.166 333.82C200.015 336.886 192.468 335.734 187.387 330.333C182.305 324.918 181.222 316.895 184.103 310.342" fill="#114778"/>
<path d="M212.622 340.528C212.178 340.055 212.178 339.294 212.622 338.822L219.946 331.027C220.384 330.555 221.106 330.555 221.55 331.027C221.994 331.5 221.994 332.261 221.55 332.734L214.226 340.521C213.774 340.993 213.059 340.993 212.622 340.528Z" fill="#103153"/>
<path d="M240.988 310.334C234.83 307.269 227.284 308.421 222.202 313.829C217.121 319.237 216.045 327.267 218.919 333.813C225.07 336.878 232.623 335.726 237.698 330.326C242.786 324.918 243.869 316.887 240.988 310.334Z" fill="#103153"/>
<path d="M218.919 333.82C225.07 336.886 232.623 335.734 237.698 330.333C242.779 324.918 243.862 316.895 240.981 310.342" fill="#114778"/>
<path d="M212.469 309.677C212.914 309.204 212.914 308.443 212.469 307.971L205.145 300.177C204.708 299.704 203.993 299.711 203.548 300.184C203.104 300.649 203.104 301.41 203.548 301.883L210.866 309.677C211.31 310.157 212.032 310.15 212.469 309.677Z" fill="#103153"/>
<path d="M184.103 279.491C190.261 276.425 197.807 277.578 202.889 282.985C207.971 288.393 209.047 296.424 206.166 302.969C200.015 306.035 192.469 304.882 187.387 299.475C182.305 294.067 181.222 286.036 184.103 279.491Z" fill="#103153"/>
<path d="M206.166 302.969C200.015 306.035 192.468 304.882 187.387 299.475C182.305 294.067 181.222 286.036 184.103 279.491" fill="#114778"/>
<path d="M212.622 309.677C212.178 309.204 212.178 308.443 212.622 307.971L219.946 300.177C220.384 299.704 221.106 299.711 221.55 300.184C221.994 300.649 221.994 301.41 221.55 301.883L214.226 309.677C213.774 310.157 213.059 310.15 212.622 309.677Z" fill="#103153"/>
<path d="M240.988 279.491C234.83 276.425 227.284 277.578 222.202 282.985C217.121 288.393 216.045 296.424 218.919 302.969C225.07 306.035 232.623 304.882 237.698 299.475C242.786 294.067 243.869 286.036 240.988 279.491Z" fill="#103153"/>
<path d="M218.919 302.969C225.07 306.035 232.623 304.882 237.698 299.475C242.779 294.067 243.862 286.036 240.981 279.491" fill="#114778"/>
<path d="M212.469 278.834C212.914 278.361 212.914 277.6 212.469 277.127L205.145 269.333C204.708 268.868 203.993 268.868 203.548 269.34C203.104 269.806 203.104 270.567 203.548 271.04L210.866 278.834C211.31 279.306 212.032 279.306 212.469 278.834Z" fill="#103153"/>
<path d="M184.103 248.647C190.261 245.589 197.807 246.734 202.889 252.142C207.971 257.55 209.047 265.587 206.166 272.133C200.015 275.199 192.469 274.046 187.387 268.646C182.305 263.223 181.222 255.193 184.103 248.647Z" fill="#103153"/>
<path d="M206.166 272.125C200.015 275.191 192.468 274.039 187.387 268.638C182.305 263.223 181.222 255.2 184.103 248.647" fill="#114778"/>
<path d="M212.622 278.834C212.178 278.361 212.178 277.6 212.622 277.127L219.946 269.333C220.384 268.868 221.106 268.868 221.55 269.34C221.994 269.806 221.994 270.567 221.55 271.04L214.226 278.834C213.774 279.306 213.059 279.306 212.622 278.834Z" fill="#103153"/>
<path d="M240.988 248.647C234.83 245.589 227.284 246.734 222.202 252.142C217.121 257.55 216.045 265.587 218.919 272.133C225.07 275.199 232.623 274.046 237.698 268.646C242.786 263.223 243.869 255.193 240.988 248.647Z" fill="#103153"/>
<path d="M218.919 272.125C225.07 275.191 232.623 274.039 237.698 268.638C242.779 263.223 243.862 255.2 240.981 248.647" fill="#114778"/>
<path d="M212.469 247.99C212.914 247.517 212.914 246.756 212.469 246.283L205.145 238.489C204.708 238.024 203.993 238.024 203.548 238.489C203.104 238.955 203.104 239.723 203.548 240.196L210.866 247.982C211.31 248.455 212.032 248.455 212.469 247.99Z" fill="#103153"/>
<path d="M184.103 217.796C190.261 214.738 197.807 215.89 202.889 221.291C207.971 226.699 209.047 234.729 206.166 241.282C200.015 244.348 192.469 243.195 187.387 237.788C182.305 232.38 181.222 224.349 184.103 217.796Z" fill="#103153"/>
<path d="M206.166 241.282C200.015 244.348 192.468 243.195 187.387 237.787C182.305 232.38 181.222 224.349 184.103 217.796" fill="#114778"/>
<path d="M212.622 247.99C212.178 247.517 212.178 246.756 212.622 246.283L219.946 238.489C220.384 238.024 221.106 238.024 221.55 238.489C221.994 238.955 221.994 239.723 221.55 240.196L214.226 247.982C213.774 248.455 213.059 248.455 212.622 247.99Z" fill="#103153"/>
<path d="M240.988 217.796C234.83 214.738 227.284 215.89 222.202 221.291C217.121 226.699 216.045 234.729 218.919 241.282C225.07 244.348 232.623 243.195 237.698 237.788C242.786 232.38 243.869 224.349 240.988 217.796Z" fill="#103153"/>
<path d="M218.919 241.282C225.07 244.348 232.623 243.195 237.698 237.787C242.779 232.38 243.862 224.349 240.981 217.796" fill="#114778"/>
<path d="M192.781 403.523C192.92 404.638 193.809 405.547 194.76 405.547C206.59 405.547 218.427 405.547 230.263 405.547C231.214 405.547 232.103 404.638 232.242 403.523C233.359 394.318 234.476 385.12 235.601 375.908C235.74 374.785 234.921 373.884 233.768 373.884C219.592 373.884 205.423 373.884 191.247 373.884C190.094 373.884 189.275 374.792 189.414 375.908C190.546 385.113 191.663 394.31 192.781 403.523Z" fill="#C4D1E1"/>
<path d="M191.254 373.884C205.43 373.884 219.599 373.884 233.775 373.884C234.928 373.884 235.747 374.792 235.608 375.908C235.379 377.777 235.15 379.653 234.928 381.522H190.115C189.886 379.646 189.657 377.777 189.428 375.908C189.282 374.785 190.101 373.884 191.254 373.884Z" fill="#B0BFDE"/>
<path d="M187.088 373.884C187.088 375.213 188.102 376.285 189.345 376.285H235.677C236.927 376.285 237.934 375.206 237.934 373.884V363.46C237.934 362.13 236.927 361.059 235.677 361.059H189.345C188.095 361.059 187.088 362.13 187.088 363.46V373.884Z" fill="#C4D1E1"/>
<path d="M171.558 166.326C170.503 188.992 186.901 208.288 208.207 209.419C229.513 210.549 247.639 193.085 248.701 170.412C249.763 147.754 233.352 128.464 212.053 127.334C190.747 126.204 172.62 143.661 171.558 166.326Z" fill="#F4901E"/>
<path d="M174.155 165.979C173.093 188.637 189.49 207.941 210.803 209.072C232.109 210.202 250.242 192.737 251.298 170.065C252.367 147.399 235.955 128.117 214.649 126.98C193.343 125.849 175.217 143.306 174.155 165.979Z" fill="#FFC400"/>
<path d="M241.085 170.737C241.905 153.435 229.367 138.704 213.101 137.847C206.27 137.492 199.876 139.627 194.69 143.513C200.119 138.874 207.103 136.244 214.614 136.635C230.873 137.5 243.411 152.223 242.599 169.525C242.12 179.573 237.26 188.268 230.089 193.631C236.441 188.209 240.655 180.053 241.085 170.737Z" fill="#F4901E"/>
<path d="M207.325 184.36H219.946V183.023C219.231 182.69 218.502 182.387 217.766 182.121C217.03 181.863 216.295 181.641 215.538 181.456V158.872L215.364 156.161C216.17 156.501 217.01 156.737 217.87 156.878C218.738 157.011 219.627 157.07 220.55 157.033L220.765 155.932C219.439 155.474 218.072 154.898 216.656 154.211C215.246 153.524 213.934 152.659 212.719 151.61H211.636V181.464C210.914 181.648 210.199 181.87 209.477 182.129C208.755 182.387 208.033 182.69 207.311 183.03V184.36H207.325Z" fill="#F4901E"/>
<path d="M283.343 155.681L286.016 151.824C286.016 151.824 287.21 149.926 289.286 148.263C291.369 146.601 293.535 147.303 295.402 149.12C297.27 150.938 297.561 152.386 297.561 152.386C297.561 152.386 296.457 155.622 293.791 155.415C291.133 155.208 285.489 158.473 285.003 157.424C284.517 156.382 283.343 155.681 283.343 155.681Z" fill="#E9D6B8"/>
<path d="M297.131 153.775L300.567 149.874L303.615 146.092L302.629 145.715L300.116 148.079L294.645 149.638L295.471 151.019L297.131 153.775Z" fill="#E9D6B8"/>
<path d="M298.672 146.926L300.338 142.885L299.484 142.235L297.165 145.907L293.597 148.707L295.472 151.019L298.672 146.926Z" fill="#E9D6B8"/>
<path d="M297.776 141.622L296.645 144.932L296.173 147.237L294.319 148.943L292.285 147.628L294.333 145.863L296.527 141.777L297.776 141.622Z" fill="#E9D6B8"/>
<path d="M294.493 141.149L293.403 147.399L292.014 148.507L290.577 147.702L292.035 145.094L293.562 141.659L294.493 141.149Z" fill="#E9D6B8"/>
<path d="M283.656 159.352C285.419 157.225 288.265 157.454 288.265 157.454C288.265 157.454 295.374 157.838 296.464 156.656C297.554 155.467 300.519 154.558 300.519 154.558C300.519 154.558 301.581 153.538 298.707 153.346C296.825 153.221 295.18 153.723 295.18 153.723C295.18 153.723 291.209 151.98 289.966 152.223C287.418 152.726 283.225 157.978 283.225 157.978C283.225 157.978 283.427 159.626 283.656 159.352Z" fill="#E9D6B8"/>
<path d="M321.207 208.318C321.207 208.318 319.589 216.91 295.354 211.953C271.118 206.996 273.11 201.388 273.11 201.388L272.736 194.784L285.343 180.415L292.125 186.421L291.806 187.847C291.806 187.847 292.778 189.502 294.389 189.502C296.006 189.502 303.115 191.814 317.014 192.471C323.414 192.767 321.526 206.663 321.207 208.318Z" fill="#D1DBEA"/>
<path d="M317 192.464C316.722 192.449 316.451 192.434 316.18 192.42C317.305 196.416 317.222 201.374 317.159 202.327C317.159 202.327 316.611 211.051 291.959 209.249C287.516 208.924 283.933 208.466 281.052 207.934C284.26 209.241 288.835 210.623 295.354 211.945C319.596 216.902 321.207 208.311 321.207 208.311C321.526 206.663 323.414 192.767 317 192.464Z" fill="#B0BFDE"/>
<path d="M285.329 182.225C285.329 182.225 274.756 167.028 288.883 154.809C293.083 151.174 287.911 153.162 283.066 155.467C278.22 157.779 268.195 169.341 269.167 180.902C270.139 192.464 271.43 196.756 275.63 198.404C279.838 200.059 285.329 182.225 285.329 182.225Z" fill="#E9D6B8"/>
<path d="M291.133 195.685L293.111 191.238L293.798 189.413C292.535 189.095 291.792 187.832 291.792 187.832L290.931 191.445L289.154 195.486L285.197 199.933L291.133 195.685Z" fill="#B0BFDE"/>
<path d="M313.126 261.827L341.888 261.162L353.849 218.55C353.849 218.55 361.604 192.789 346.74 192.456C331.87 192.124 314.743 192.124 314.743 192.124C314.743 192.124 304.726 201.381 313.126 261.827Z" fill="#D1DBEA"/>
<path d="M339.298 160.158C339.298 160.158 324.171 175.118 326.053 180.311C326.136 180.533 328.517 182.978 328.781 185.431C329.031 187.743 327.989 189.11 327.989 190.034C327.989 190.336 327.233 192.324 327.149 192.915C326.795 195.582 328.073 197.776 329.128 197.51C330.419 197.177 335.89 194.872 336.848 194.318C337.5 193.934 338.125 193.868 338.285 192.767C338.639 190.418 339.798 186.406 340.909 185.268C344.172 181.937 353.322 178.723 350.781 169.149C350.045 166.341 340.597 159.493 339.298 160.158Z" fill="#E9D6B8"/>
<path d="M329.1 198.116C329.1 198.116 316.069 222.022 319.77 248.485C320.061 250.568 322.394 252.061 322.394 252.061L325.601 249.076C325.601 249.083 325.344 219.134 329.1 198.116Z" fill="#163F59"/>
<path d="M329.565 197.48L330.273 202.763L339.409 194.688L338.347 192.715L329.565 197.48Z" fill="#B0BFDE"/>
<path d="M326.886 194.075L327.149 192.294L325.476 195.345L325.393 200.945L329.003 197.599L326.886 194.075Z" fill="#B0BFDE"/>
<path d="M326.226 180.031C326.226 180.031 326.941 180.2 328.309 180.4C328.767 180.466 330.093 180.681 330.69 180.969C333.349 182.247 333.113 182.409 334.869 182.845C336.869 183.348 341.277 183.503 341.277 183.503C341.277 183.503 339.055 184.397 338.174 184.773C336.528 185.475 335.105 185.224 333.981 184.818C329.1 183.067 329.1 183.569 328.6 183.133C328.572 183.096 328.427 182.705 326.226 180.031Z" fill="#E2C59C"/>
<path d="M333.925 167.051C333.689 167.361 330.516 169.053 329.926 169.363C329.336 169.681 328.573 170.05 328.51 170.301C328.455 170.552 328.51 171.49 328.573 171.867C328.635 172.244 328.809 173.744 329.982 172.621C331.162 171.49 333.925 167.051 333.925 167.051Z" fill="#E9D6B8"/>
<path d="M351.628 168.676C350.739 163.608 344.456 158.85 337.223 159.16C337.223 159.16 336.577 160.283 337.285 162.352C337.285 162.352 342.172 161.362 345.519 165.292C349.031 169.422 344.679 168.92 344.755 170.781C344.81 172.347 344.928 173.744 344.928 173.744L343.609 176.61L344.533 177.689C344.533 177.689 347.136 175.716 347.053 176.935C346.942 178.413 345.123 180.016 344.894 180.267C344.658 180.518 344.262 180.925 344.318 181.109C344.366 181.257 342.908 182.424 341.2 185.113C341.673 185.571 342.853 185.424 344.408 184.16C347.893 181.323 352.704 174.867 351.628 168.676Z" fill="#163F59"/>
<path d="M346.956 176.588C347.865 177.371 348.011 178.782 347.275 179.75C346.539 180.718 345.206 180.873 344.297 180.09" fill="#E9D6B8"/>
<path d="M331.384 172.902C331.384 172.902 329.933 170.678 329.69 170.56C329.454 170.434 328.927 170.057 328.746 170.242C328.572 170.427 328.434 171.21 328.906 172.621C329.031 172.961 329.308 172.333 331.384 172.902Z" fill="#E2C59C"/>
<path d="M313.876 393.372H321.283V405.384H313.876V393.372Z" fill="#593446"/>
<path d="M367.852 393.372H373.85V405.384H367.852V393.372Z" fill="#593446"/>
<path d="M320.936 408.887H315.521V407.136L313.175 408.887H299.533C299.533 408.887 299.769 406.508 308.94 406.138C311.293 406.042 312.939 402.629 312.939 402.629C312.939 402.629 314.112 401.506 315.875 404.129C316.333 404.816 321.283 403.501 321.283 403.501C321.283 403.501 321.755 407.01 320.936 408.887Z" fill="#081832"/>
<path d="M314.098 260.837L313.452 325.908L326.379 333.51C326.379 333.51 334.133 317.988 335.105 298.167C336.07 278.346 314.098 260.837 314.098 260.837Z" fill="#163F59"/>
<path d="M314.098 260.837L342.54 332.187L347.712 339.789L367.331 399.068L374.739 396.815C374.739 396.815 377.446 364.235 369.685 350.354C361.93 336.48 358.049 328.885 358.049 328.885L340.923 258.857L314.098 260.837Z" fill="#194866"/>
<path d="M321.943 400.191C324.282 387.425 329.433 365.166 329.607 356.958C329.926 341.762 327.663 331.19 327.663 331.19L313.445 325.908L313.383 400.191H321.943Z" fill="#163F59"/>
<path d="M367.054 411.08H370.719L371.872 409.847L372.371 406.84L373.538 408.074L377.363 404.003C376.697 402.06 374.038 399.932 374.038 399.932C374.038 399.932 371.406 404.587 370.629 404.446C367.637 403.914 367.553 405.599 367.553 405.599C367.553 405.599 368.636 409.233 367.054 411.08Z" fill="#081832"/>
<path d="M370.851 406.67C370.15 407.505 369.171 408.34 368.026 408.384C358.855 408.761 358.619 411.139 358.619 411.139H370.851V406.67Z" fill="#081832"/>
<path d="M329.329 236.539C321.825 255.466 328.711 276.817 344.72 284.204C360.736 291.6 379.8 282.232 387.304 263.29C394.816 244.363 387.915 223.027 371.906 215.639C355.897 208.244 336.834 217.604 329.329 236.539Z" fill="#F4901E"/>
<path d="M327.316 233.746C319.818 252.681 326.698 274.024 342.714 281.412C358.73 288.807 377.793 279.439 385.298 260.512C392.81 241.577 385.909 220.242 369.9 212.847C353.884 205.451 334.821 214.812 327.316 233.746Z" fill="#FFC400"/>
<path d="M375.211 257.993C380.945 243.543 375.676 227.245 363.458 221.601C358.32 219.23 352.787 219.119 347.657 220.855C353.197 218.55 359.334 218.432 364.971 221.032C377.196 226.669 382.466 242.966 376.738 257.424C373.406 265.809 367.116 271.727 360.028 274.128C366.477 271.438 372.129 265.779 375.211 257.993Z" fill="#F4901E"/>
<path d="M344.255 258.274L353.94 262.093L354.335 260.955C353.877 260.453 353.412 259.973 352.919 259.53C352.433 259.086 351.926 258.673 351.406 258.288L358.077 239.103L358.744 236.746C359.264 237.278 359.834 237.729 360.458 238.105C361.083 238.482 361.75 238.807 362.465 239.058L362.958 238.187C362.076 237.396 361.194 236.487 360.32 235.483C359.438 234.471 358.688 233.333 358.07 232.084L357.244 231.759L348.427 257.114C347.816 257.055 347.206 257.025 346.574 257.033C345.942 257.033 345.303 257.077 344.651 257.136L344.255 258.274Z" fill="#F4901E"/>
<path d="M362.25 283.399C361.465 284.943 356.48 286.457 356.48 286.457L352.926 282.209H355.189L356.807 278.346L361.653 280.326C361.653 280.326 362.729 282.453 362.25 283.399Z" fill="#E9D6B8"/>
<path d="M351.906 217.235L368.713 244.651L370.976 244.983L370.331 247.295L382.5 246.305L385.194 235.076L361.604 198.086C361.604 198.086 354.252 190.979 342.214 192.804C333.488 194.119 350.614 214.922 351.906 217.235Z" fill="#D1DBEA"/>
<path d="M370.976 246.305L358.494 283.207C358.494 283.207 361.208 284.086 362.791 282.594C367.068 278.545 374.517 267.53 377.12 261.494C380.674 253.235 382.611 244.318 382.611 244.318L370.976 246.305Z" fill="#E9D6B8"/>
<path d="M381.501 239.139C381.501 239.139 373.975 242.981 369.99 244.835L370.976 244.983L370.33 247.295L374.537 246.919L380.431 245.434L380.758 242.782H378.932L381.501 239.139Z" fill="#B0BFDE"/>
<path d="M267.313 145.833C281.642 159.463 301.615 161.059 311.925 149.379C322.234 137.699 318.971 117.183 304.642 103.553C290.32 89.9229 270.347 88.3346 260.038 100.007C249.729 111.687 252.985 132.195 267.313 145.833Z" fill="#F4901E"/>
<path d="M269.271 141.947C283.593 155.577 303.566 157.173 313.876 145.493C324.185 133.813 320.922 113.298 306.593 99.6599C292.271 86.0296 272.298 84.4413 261.989 96.1212C251.686 107.801 254.942 128.317 269.271 141.947Z" fill="#FFC400"/>
<path d="M302.449 105.962C291.514 95.545 276.262 94.3408 268.397 103.258C265.092 106.996 263.62 111.931 263.822 117.161C263.231 111.355 264.655 105.799 268.285 101.692C276.158 92.7746 291.403 93.9788 302.344 104.388C308.69 110.431 312.182 118.233 312.466 125.465C311.779 118.683 308.343 111.561 302.449 105.962Z" fill="#F4901E"/>
<path d="M296.18 133.311L301.852 126.012L300.984 125.251C300.435 125.472 299.915 125.724 299.415 126.004C298.915 126.278 298.436 126.573 297.978 126.913L283.232 113.933L281.379 112.47C281.962 112.197 282.489 111.85 282.968 111.428C283.447 111.007 283.885 110.52 284.274 109.973L283.649 109.212C282.753 109.715 281.767 110.18 280.677 110.594C279.594 111.015 278.435 111.273 277.213 111.377L276.727 112.005L296.221 129.152C296.013 129.676 295.839 130.215 295.687 130.784C295.534 131.353 295.402 131.937 295.298 132.55L296.18 133.311Z" fill="#F4901E"/>
<path d="M507.41 371.944L509.902 391.462L498.273 394.654L492.081 394.853L504.084 388.463L500.932 371.841L507.41 371.944Z" fill="#E9D6B8"/>
<path d="M513.2 276.318C513.2 276.318 489.894 322.447 489.894 325.572C489.894 328.697 500.37 374.397 500.37 374.397L509.354 375.586C509.354 375.586 503.848 335.338 504.82 331.238C506.098 325.823 535.581 288.426 531.083 276.99C526.577 265.554 513.2 276.318 513.2 276.318Z" fill="#163F59"/>
<path d="M510.089 394.654L507.653 394.853L506.341 393.058L496.024 396.301L489.464 396.848C489.464 396.848 489.957 395.747 490.352 395.4C491.546 394.366 496.309 392.452 496.309 392.452C496.309 392.452 496.219 394.048 496.968 394.248C497.718 394.447 504.848 392.356 506.535 391.647C509.437 390.45 510.103 389.483 510.284 389.652C510.749 390.118 510.089 394.654 510.089 394.654Z" fill="#161711"/>
<path d="M449.185 307.553C449.185 307.553 448.657 307.036 448.254 307.45C447.595 308.129 446.9 309.969 446.678 310.626C446.428 311.365 445.817 315.044 445.817 315.044C445.817 315.044 446.824 314.158 447.067 312.673C447.435 310.508 449.185 307.553 449.185 307.553Z" fill="#E9D6B8"/>
<path d="M448.983 308.011C448.074 309.038 447.921 310.671 448.178 312.628C448.428 314.49 447.609 315.34 447.609 315.34C447.609 315.34 447.331 314.158 447.241 311.225C447.213 310.405 447.227 309.503 447.484 308.735C448.247 306.423 451.323 305.374 448.983 308.011Z" fill="#E9D6B8"/>
<path d="M477.002 276.466C474.802 283.957 456.467 299.619 456.467 299.619C456.467 299.619 448.122 303.408 468.602 278.298C474.753 270.762 477.544 274.619 477.002 276.466Z" fill="#E9D6B8"/>
<path d="M448.581 309.496L448.143 308.964L448.442 306.556C448.442 306.556 450.587 302.796 451.871 301.695C453.163 300.587 456.307 294.743 456.87 294.159C457.432 293.576 460.91 294.743 460.91 294.743C460.91 294.743 456.391 299.796 454.759 301.961C453.128 304.125 451.802 308.063 451.184 308.935C450.143 310.427 449.698 311.247 449.698 311.247C449.698 311.247 449.025 310.545 450.531 308.107C450.927 307.457 450.039 307.332 450.039 307.332L448.581 309.496Z" fill="#E9D6B8"/>
<path d="M449.261 306.533C449.261 306.533 448.053 308.38 448.067 309.511C448.081 310.294 448.692 313.988 448.692 313.988C448.692 313.988 449.344 312.776 449.101 311.299C448.747 309.127 449.261 306.533 449.261 306.533Z" fill="#E9D6B8"/>
<path d="M460.91 285.36L468.248 274.449C468.248 274.449 476.829 246.464 480.008 245.024C483.792 243.317 490.227 243 490.227 243L479.293 276.724L472.719 290.295L460.91 285.36Z" fill="#B0BFDE"/>
<path d="M416.91 346.043C415.834 369.063 432.495 388.662 454.127 389.8C475.767 390.945 494.171 373.215 495.254 350.187C496.337 327.175 479.668 307.583 458.036 306.437C436.397 305.292 417.986 323.023 416.91 346.043Z" fill="#F4901E"/>
<path d="M419.548 345.688C418.472 368.701 435.126 388.3 456.765 389.446C478.405 390.591 496.816 372.86 497.892 349.833C498.975 326.813 482.306 307.228 460.674 306.083C439.035 304.945 420.631 322.668 419.548 345.688Z" fill="#FFC400"/>
<path d="M487.52 350.52C488.346 332.945 475.614 317.992 459.105 317.113C452.17 316.751 445.672 318.923 440.409 322.868C445.922 318.147 453.017 315.488 460.639 315.886C477.155 316.758 489.887 331.711 489.061 349.286C488.582 359.489 483.646 368.317 476.364 373.762C482.792 368.272 487.076 359.984 487.52 350.52Z" fill="#F4901E"/>
<path d="M453.232 364.35H466.047V362.998C465.318 362.658 464.575 362.355 463.833 362.082C463.083 361.823 462.333 361.594 461.569 361.409V338.471L461.396 335.722C462.215 336.062 463.062 336.306 463.944 336.446C464.818 336.587 465.728 336.638 466.665 336.609L466.887 335.486C465.54 335.028 464.152 334.437 462.722 333.735C461.285 333.041 459.952 332.154 458.73 331.098H457.626V361.417C456.897 361.601 456.168 361.83 455.432 362.089C454.704 362.355 453.975 362.658 453.239 363.005V364.35H453.232Z" fill="#F4901E"/>
<path d="M456.411 240.465C461.077 246.582 470.365 247.299 477.155 242.069C483.945 236.838 485.666 227.626 481.001 221.501C476.336 215.377 467.047 214.66 460.257 219.898C453.468 225.129 451.746 234.334 456.411 240.465Z" fill="#163F59"/>
<path d="M472.122 238.892C474.871 242.689 480.689 242.83 485.125 239.202C489.561 235.575 490.929 229.554 488.18 225.749C485.437 221.945 479.606 221.812 475.177 225.439C470.754 229.066 469.38 235.087 472.122 238.892Z" fill="#163F59"/>
<path d="M467.568 248.784C471.296 253.579 478.543 254.281 483.757 250.358C488.978 246.435 490.186 239.372 486.458 234.57C482.737 229.776 475.482 229.066 470.268 232.989C465.048 236.919 463.84 243.982 467.568 248.784Z" fill="#163F59"/>
<path d="M480.855 237.474C483.597 241.278 489.422 241.411 493.858 237.784C498.294 234.156 499.662 228.136 496.913 224.331C494.164 220.534 488.346 220.393 483.91 224.021C479.474 227.648 478.106 233.676 480.855 237.474Z" fill="#163F59"/>
<path d="M457.633 228.379C458.244 229.007 458.911 229.605 459.646 230.16C464.527 233.898 470.275 234.54 473.448 231.977C475.447 233.898 477.544 235.294 479.46 236.343C481.64 237.54 485.333 237.318 485.333 237.318C488.756 239.911 483.153 255.152 482.91 254.406C482.667 253.652 481.64 247.358 479.258 243.147C477.592 240.207 475.044 239.047 472.941 238.618C469.539 238.345 467.318 240.798 467.318 240.798C467.102 241.027 466.811 241.138 466.526 241.13C465.957 240.82 465.429 240.406 464.95 239.904L459.528 234.186C458.022 232.612 457.39 230.448 457.633 228.379Z" fill="#E9D6B8"/>
<path d="M479.266 218.79C480.585 223.681 475.691 229.48 468.339 231.733C460.98 233.987 453.948 231.852 452.622 226.961C451.296 222.063 456.183 216.271 463.542 214.018C470.894 211.764 477.933 213.899 479.266 218.79Z" fill="#194866"/>
<path d="M477.759 216.241C473.212 217.63 470.601 222.728 471.927 227.626C472.094 228.254 472.316 228.845 472.594 229.399C473.253 228.956 473.968 228.608 474.753 228.365C478.71 227.146 482.841 229.155 484.708 232.93C487.874 230.817 489.492 226.636 488.395 222.58C487.069 217.682 482.306 214.845 477.759 216.241Z" fill="#194866"/>
<path d="M492.733 219.189C489.943 220.039 487.089 219.3 484.979 217.49C481.751 219.58 480.092 223.806 481.202 227.899C482.528 232.79 487.284 235.634 491.831 234.238C496.378 232.841 498.988 227.751 497.669 222.853C497.156 220.955 496.121 219.366 494.781 218.214C494.157 218.627 493.469 218.96 492.733 219.189Z" fill="#194866"/>
<path d="M548.793 379.132L553.729 399.892L542.093 403.091L535.908 403.283L547.911 396.9L541.663 377.936L548.793 379.132Z" fill="#E9D6B8"/>
<path d="M553.916 403.091L551.479 403.283L550.16 401.488L540.83 404.288L532.902 404.687C532.902 404.687 532.916 404.029 533.235 403.733C534.408 402.633 540.226 400.793 540.226 400.793C540.226 400.793 539.99 402.684 540.74 402.891C541.496 403.091 548.668 400.793 550.355 400.099C553.257 398.895 553.93 397.934 554.104 398.104C554.576 398.547 553.916 403.091 553.916 403.091Z" fill="#161711"/>
<path d="M536.838 277.212C541.698 291.108 533.679 335.974 533.679 335.974C533.679 335.974 540.198 348.629 541.961 355.093C545.023 366.278 550.771 380.706 550.771 380.706L541.059 381.127C541.059 381.127 519.461 340.502 518.58 335.028C517.698 329.554 513.63 284.001 519.378 273.053C525.119 262.111 534.894 271.671 536.838 277.212Z" fill="#194866"/>
<path d="M518.024 292.563C518.024 292.563 507.847 294.743 505.48 292.563C502.376 289.704 504.175 282.871 499.245 276.384C494.316 269.898 492.331 268.214 490.262 266.854C488.193 265.495 485.347 264.394 484.382 261.269C483.417 258.152 481.716 253.091 482.098 252.079C482.709 250.454 483.313 248.614 483.209 246.708C483.146 245.666 518.024 292.563 518.024 292.563Z" fill="#C458AD"/>
<path d="M518.802 296.767C518.802 296.767 507.194 280.928 501.196 273.09C495.191 265.251 484.639 249.353 483.209 247.454C481.779 245.563 480.418 242.386 480.418 242.386C480.418 242.386 479.522 237.717 482.063 235.582C484.611 233.455 486.048 233.366 496.503 236.365C515.595 241.832 540.073 273.614 538.851 278.822C538.796 279.074 533.464 280.123 533.464 280.123C533.464 280.123 520.239 286.358 518.802 296.767Z" fill="#D1DBEA"/>
<path d="M481.029 234.009L480.487 237.37L479.883 242.357L483.459 244.684L483.438 234.289L481.029 234.009Z" fill="#B0BFDE"/>
<path d="M479.682 303.616C477.308 309.467 473.795 310.811 472.08 312.769C470.365 314.727 468.234 316.507 468.262 316.507C470.928 316.197 471.754 314.335 472.823 313.707C473.899 313.087 473.448 313.168 472.74 315.318C472.337 316.537 469.713 317.793 468.123 318.834C466.749 319.728 466.346 320.511 466.346 320.511C466.346 320.511 468.762 319.839 470.99 318.583C473.684 317.069 476.315 314.867 476.815 314.291C477.745 313.234 479.439 309.385 480.258 306.445C481.168 303.128 481.39 299.397 479.682 303.616Z" fill="#E9D6B8"/>
<path d="M493.858 268.221C493.858 268.221 491.644 267.364 486.978 279.812C482.313 292.253 478.099 311.646 478.099 311.646L491.151 283.905C491.151 283.905 495.705 273.075 493.858 268.221Z" fill="#E9D6B8"/>
<path d="M485.826 275.306C485.826 275.306 490.234 263.737 495.962 266.662C499.225 268.324 499.544 271.435 498.155 274.907C495.58 281.371 492.359 288.589 492.359 288.589L481.973 288.655L485.826 275.306Z" fill="#B0BFDE"/>
<path d="M487.353 268.62L484.799 241.795C484.799 241.795 485.555 238.39 487.957 237.858C491.422 237.089 493.233 237.968 494.143 239.963C495.955 243.908 495.67 241.736 497.434 257.154C499.051 271.257 499.87 277.049 493.657 278.165C487.846 279.229 487.353 268.62 487.353 268.62Z" fill="#B0BFDE"/>
<path d="M475.135 315.606C475.135 315.606 472.136 319.447 471.282 319.95C470.692 320.289 467.644 321.435 467.644 321.435C467.644 321.435 468.644 319.927 469.838 319.396C471.039 318.871 475.135 315.606 475.135 315.606Z" fill="#E9D6B8"/>
</svg>
